<svg width="17" height="17" viewBox="0 0 17 17" fill="none" xmlns="http://www.w3.org/2000/svg">
<path fill-rule="evenodd" clip-rule="evenodd" d="M15.7857 8.5C15.7857 12.5238 12.5238 15.7857 8.5 15.7857C4.47621 15.7857 1.21429 12.5238 1.21429 8.5C1.21429 4.47621 4.47621 1.21429 8.5 1.21429C12.5238 1.21429 15.7857 4.47621 15.7857 8.5ZM17 8.5C17 13.1944 13.1944 17 8.5 17C3.80558 17 0 13.1944 0 8.5C0 3.80558 3.80558 0 8.5 0C13.1944 0 17 3.80558 17 8.5ZM9.06784 10.9917C9.17504 10.914 9.22865 10.8217 9.22865 10.7148V3.79341C9.22865 3.68655 9.17504 3.59427 9.06784 3.51655C8.96063 3.43884 8.83333 3.39998 8.68592 3.39998H8.3144C8.167 3.39998 8.03969 3.43884 7.93249 3.51655C7.82528 3.59427 7.77168 3.68655 7.77168 3.79341V10.7148C7.77168 10.8217 7.82528 10.914 7.93249 10.9917C8.03969 11.0694 8.167 11.1083 8.3144 11.1083H8.68592C8.83333 11.1083 8.96063 11.0694 9.06784 10.9917ZM9.06784 13.4834C9.17504 13.4057 9.22865 13.3134 9.22865 13.2066V12.376C9.22865 12.2691 9.17504 12.1768 9.06784 12.0991C8.96063 12.0214 8.83333 11.9826 8.68592 11.9826H8.31423C8.16682 11.9826 8.03951 12.0214 7.93231 12.0991C7.82511 12.1768 7.7715 12.2691 7.7715 12.376V13.2066C7.7715 13.3134 7.82511 13.4057 7.93231 13.4834C8.03951 13.5611 8.16682 13.6 8.31423 13.6H8.68592C8.83333 13.6 8.96063 13.5611 9.06784 13.4834Z" fill="#F35459"/>
</svg>
