<svg width="9" height="16" viewBox="0 0 9 16" fill="none" xmlns="http://www.w3.org/2000/svg">
<path d="M5.88635 7.54616L0.240957 13.1947C0.0855114 13.3499 -2.72628e-06 13.5574 -2.74562e-06 13.7786C-2.76497e-06 13.9999 0.0855113 14.2072 0.240957 14.3626L0.735638 14.8573C0.890839 15.013 1.09831 15.0986 1.31939 15.0986C1.54047 15.0986 1.7477 15.013 1.90302 14.8573L8.62476 8.13218C8.7807 7.97629 8.86609 7.76798 8.86548 7.54653C8.86609 7.3241 8.78082 7.11604 8.62476 6.96002L1.90928 0.241405C1.75395 0.0857538 1.54673 7.27931e-05 1.32553 7.27738e-05C1.10444 7.27544e-05 0.89722 0.0857537 0.741774 0.241405L0.247216 0.736097C-0.0745961 1.05808 -0.0745962 1.58223 0.247215 1.90409L5.88635 7.54616Z" fill="black" fill-opacity="0.2"/>
</svg>
