<svg width="28" height="28" viewBox="0 0 28 28" fill="none" xmlns="http://www.w3.org/2000/svg">
<path fill-rule="evenodd" clip-rule="evenodd" d="M21.3989 26.3554H19.7542V18.1485H14.8285V26.3554H13.1838V21.4296H8.25804V26.3554H6.61339V24.7107H1.68761V26.3554H0.705728C-0.235243 26.3554 -0.235243 28 0.705728 28H27.282C28.223 28 28.223 26.3554 27.282 26.3554H26.3001V14.8673H21.3744V26.3554H21.3989ZM1.71216 20.505V23.0742H6.63793V20.505C6.63793 20.1695 6.26155 19.7931 5.92607 19.7931H2.42402C2.08855 19.7931 1.71216 20.1695 1.71216 20.505ZM8.27441 17.2239V19.7931H13.2002V17.2239C13.2002 16.8884 12.8238 16.512 12.4883 16.512H8.98627C8.65079 16.512 8.27441 16.8884 8.27441 17.2239ZM14.8367 13.9427V16.512H19.7624V13.9427C19.7624 13.6073 19.386 13.2309 19.0506 13.2309H15.5485C15.213 13.2309 14.8367 13.6073 14.8367 13.9427ZM21.3989 10.6616V13.2309H26.3247V10.6616C26.3247 10.3261 25.9483 9.94974 25.6128 9.94974H22.1108C21.7753 9.94974 21.3989 10.3261 21.3989 10.6616ZM19.7542 3.99299C19.7542 5.08942 20.5643 4.92578 21.3989 4.92578V7.60959C21.3989 7.94507 21.7753 8.32145 22.1108 8.32145H25.6128C25.9483 8.32145 26.3247 7.94507 26.3247 7.60959V4.92578H27.2575C27.6993 4.92578 27.9693 4.52484 27.9693 3.99299C27.9693 3.57569 26.4474 2.2256 26.0956 1.87376C25.7437 1.52192 24.3936 0 23.9763 0C23.3054 0 23.199 0.310929 22.6508 0.859147L20.6543 2.85564C20.417 3.09293 19.7624 3.60024 19.7624 3.99299H19.7542ZM0.0102279 7.0041C0.0102279 9.0415 0.321157 10.097 1.3685 11.668C2.53039 13.4109 4.94419 14.7773 7.01432 14.7773C9.03537 14.7773 10.1154 14.4664 11.6783 13.4191C12.3165 12.9936 13.0038 12.3063 13.4293 11.668C13.552 11.488 13.6584 11.3326 13.7811 11.1444C15.0003 9.13151 15.1476 6.34951 14.0757 4.2221C13.9775 4.0339 13.8957 3.83752 13.7811 3.64115C13.1184 2.54471 12.2674 1.6692 11.1546 1.01461C10.1318 0.409118 9.04355 0.0818235 7.93893 0.00818235H6.98978C5.64787 0.0981883 4.33051 0.564582 3.1277 1.36645C1.37668 2.53653 0.0184103 4.93396 0.0184103 7.01228L0.0102279 7.0041ZM8.00439 2.99474C8.40532 3.05202 8.76535 3.16657 9.07628 3.33022C9.38721 3.49387 9.64904 3.68206 9.86178 3.8948C10.0745 4.10754 10.2382 4.32847 10.3527 4.55757C10.4673 4.78668 10.5327 4.99124 10.5409 5.17125C10.5491 5.24489 10.5246 5.31035 10.4673 5.35944C10.41 5.41672 10.3445 5.44127 10.2709 5.44127H9.76359C9.67359 5.44127 9.59995 5.4249 9.55085 5.39217C9.49358 5.35944 9.44448 5.2858 9.38721 5.17125C9.34629 5.08942 9.28084 4.98305 9.18265 4.86032C9.08446 4.7294 8.96172 4.60667 8.79808 4.49211C8.63443 4.36938 8.44624 4.27119 8.21713 4.18118C7.98802 4.09118 7.71801 4.05027 7.41526 4.05027C7.18615 4.05027 6.96523 4.07481 6.76067 4.13209C6.54793 4.18937 6.36792 4.26301 6.20427 4.36938C6.04062 4.47575 5.90971 4.60667 5.81152 4.77031C5.71333 4.93396 5.66423 5.11397 5.66423 5.32671C5.66423 5.53945 5.71333 5.71947 5.80333 5.86675C5.90152 6.01403 6.04881 6.14495 6.26155 6.26768C6.47429 6.39042 6.73612 6.49679 7.05523 6.59498C7.37435 6.69317 7.7671 6.80772 8.22531 6.93045C8.69171 7.05319 9.08446 7.19229 9.41175 7.33957C9.73905 7.48685 10.0009 7.6505 10.2054 7.8387C10.41 8.02689 10.5573 8.23963 10.6555 8.47692C10.7537 8.72239 10.7946 8.99241 10.7946 9.29515C10.7946 9.63063 10.7291 9.94156 10.5982 10.2279C10.4673 10.5143 10.2791 10.768 10.0418 10.9807C9.79632 11.1935 9.50994 11.3735 9.16628 11.5126C8.82262 11.6517 8.43805 11.7417 8.02075 11.7826V12.5845C8.02075 12.6745 7.98802 12.7563 7.92256 12.8217C7.85711 12.8872 7.77528 12.9199 7.68528 12.9199H7.17797C7.08796 12.9199 7.00614 12.8872 6.94068 12.8217C6.87522 12.7563 6.84249 12.6745 6.84249 12.5845V11.758C6.44974 11.7008 6.08972 11.5944 5.77061 11.4389C5.45149 11.2835 5.17329 11.1035 4.94419 10.8989C4.7069 10.6943 4.52689 10.4734 4.39597 10.2279C4.26505 9.98247 4.19141 9.75337 4.18323 9.52426C4.18323 9.45062 4.20778 9.38516 4.26505 9.33607C4.32233 9.27879 4.37961 9.25424 4.45325 9.25424H4.96055C5.04238 9.25424 5.11602 9.27061 5.17329 9.30334C5.23875 9.33607 5.28785 9.40971 5.33694 9.52426C5.38603 9.63881 5.45968 9.76155 5.56605 9.90065C5.67242 10.0397 5.80333 10.1625 5.97516 10.2852C6.14699 10.408 6.35974 10.5061 6.60521 10.588C6.85068 10.6698 7.14524 10.7107 7.48072 10.7107C7.7671 10.7107 8.03712 10.678 8.29895 10.6125C8.56079 10.5471 8.78171 10.4489 8.97809 10.3261C9.17447 10.2034 9.32993 10.0561 9.44448 9.88428C9.55904 9.71245 9.61631 9.51608 9.61631 9.30334C9.61631 9.0906 9.55085 8.91058 9.41994 8.75512C9.28902 8.59965 9.10082 8.46874 8.85535 8.346C8.60988 8.22327 8.30714 8.10871 7.95529 8.01052C7.59527 7.90415 7.19433 7.79778 6.74431 7.68323C6.33519 7.57686 5.98335 7.44594 5.69696 7.29866C5.41058 7.1432 5.17329 6.97137 4.99328 6.77499C4.81327 6.57861 4.68235 6.35769 4.60871 6.1204C4.52689 5.88311 4.49416 5.62128 4.49416 5.34308C4.49416 5.07306 4.54325 4.80304 4.64144 4.54121C4.73963 4.27937 4.88691 4.04208 5.07511 3.82934C5.27148 3.6166 5.50877 3.43659 5.80333 3.28931C6.0979 3.14202 6.44156 3.04384 6.83431 2.99474V2.18469C6.83431 2.09468 6.86704 2.01286 6.9325 1.9474C6.99796 1.88194 7.07978 1.84921 7.16979 1.84921H7.67709C7.7671 1.84921 7.84892 1.88194 7.91438 1.9474C7.97984 2.01286 8.01257 2.09468 8.01257 2.18469V3.01111L8.00439 2.99474Z" fill="#F35459"/>
</svg>
