<svg width="29" height="30" viewBox="0 0 29 30" fill="none" xmlns="http://www.w3.org/2000/svg">
<path fill-rule="evenodd" clip-rule="evenodd" d="M25.2141 19.8059C25.5592 19.6379 25.9119 19.4664 25.9119 19.0624C25.9119 19.0239 25.7882 18.7392 25.624 18.3787C25.3305 17.7342 24.9179 16.8971 24.7966 16.6596H24.7957C24.5922 16.261 24.4953 15.8337 24.4989 15.406C24.5024 14.9718 24.6103 14.5389 24.8156 14.137C24.8831 14.0049 24.9488 13.8583 25.0144 13.7115C25.0757 13.5745 25.1371 13.4374 25.2073 13.2974C25.2783 13.1559 25.3483 13.0293 25.4201 12.8996C25.7528 12.2979 26.1248 11.625 25.6851 11.286L23.8407 10.2889L23.8345 10.2854C23.7209 10.2194 23.6166 10.1642 23.5197 10.113C23.2012 9.94451 22.9543 9.81388 22.6458 9.4661C22.0641 8.81026 21.9206 7.81759 21.7851 6.88016C21.7237 6.4557 21.6641 6.04315 21.5676 5.69591C21.5345 5.57664 21.5005 5.49616 21.4559 5.43888C21.4143 5.38547 21.3536 5.34254 21.2656 5.29669C21.0754 5.19756 20.9505 5.21648 20.7154 5.25206L20.6194 5.26614C20.479 5.28655 20.3457 5.30567 20.2097 5.32499L19.7836 5.38513C19.6014 5.41084 19.4315 5.43888 19.2683 5.46589C18.3505 5.61753 17.6271 5.737 16.6953 5.19797C16.56 5.11973 16.3084 4.90611 16.0313 4.65391C15.5897 4.25211 15.0801 3.75281 14.8868 3.55946C14.4775 3.15004 14.2302 2.94533 14.0224 2.94533C13.8146 2.94533 13.5673 3.15004 13.158 3.55946C13.0612 3.65627 13.0009 3.71873 12.942 3.77989C12.7345 3.99508 12.538 4.19877 12.2763 4.40083C12.1394 4.50655 12.0398 4.60976 11.9428 4.71024C11.7855 4.87311 11.6341 5.03 11.3513 5.19709C10.3715 5.77612 9.40253 5.60563 8.23318 5.39996C7.97037 5.3537 7.69701 5.30567 7.42542 5.26614C6.53942 5.13735 6.46996 5.57515 6.3556 6.29609C6.34458 6.36542 6.33322 6.43699 6.32771 6.47094C6.30845 6.58823 6.28539 6.74328 6.26185 6.90138C6.12429 7.82541 5.97189 8.84897 5.36837 9.4995C5.20094 9.67993 4.87261 9.90559 4.4985 10.131C3.95274 10.4599 3.29554 10.7979 2.92346 10.9819C2.90557 10.9907 2.84972 11.0175 2.79338 11.0443C2.63255 11.1212 2.46301 11.2022 2.3492 11.2934C1.92712 11.6317 2.2845 12.2819 2.62976 12.9099C2.7044 13.0456 2.77848 13.1804 2.85577 13.3341L2.85611 13.3339L2.86611 13.3538V13.3547C3.42677 14.4698 3.893 15.3972 3.22907 16.6966C3.16158 16.8287 3.09593 16.9753 3.03028 17.1221C2.96898 17.2591 2.90761 17.3962 2.8374 17.5362C2.76644 17.6776 2.69637 17.8044 2.62466 17.934C2.29191 18.5357 1.91984 19.2087 2.35974 19.5477L3.58332 20.2106L3.67264 20.2549C4.85581 20.8402 5.74405 21.2796 6.05013 22.779L6.48255 25.1906C6.51459 25.2852 6.55181 25.3549 6.59963 25.4082C6.64889 25.4632 6.71713 25.5084 6.80952 25.5524C7.09335 25.6877 7.59578 25.5837 8.17964 25.4629C9.14945 25.2623 10.3213 25.0198 11.3875 25.6582C11.5264 25.7413 11.7731 25.9527 12.0441 26.2014C12.4826 26.604 12.9837 27.1 13.1861 27.3022C13.5873 27.7035 13.8306 27.8949 14.035 27.8884C14.2422 27.8819 14.4881 27.673 14.8869 27.2742C14.9837 27.1774 15.0439 27.1149 15.1029 27.0538C15.3104 26.8386 15.5069 26.6349 15.7685 26.4328C15.9054 26.3271 16.0051 26.2239 16.1021 26.1234C16.2593 25.9605 16.4108 25.8036 16.6936 25.6366C17.6243 25.0866 18.3007 25.2018 19.2126 25.3571C19.3937 25.3879 19.5846 25.4204 19.7838 25.4485C19.9139 25.4669 20.0347 25.4879 20.1558 25.5089C20.7771 25.617 21.4053 25.7263 21.5727 25.1593L22.0027 22.7386L22.0045 22.7316C22.2777 21.4386 22.8289 21.1241 23.5705 20.7009C23.6675 20.6456 23.7679 20.5882 23.8671 20.5288L23.8759 20.5236L25.1146 19.8553L25.2144 19.8059H25.2141ZM11.179 12.028C11.5471 11.8703 11.8342 11.4961 11.8342 10.8738C11.8342 10.421 11.54 10.1036 11.1662 9.96022C11.0153 9.90233 10.8534 9.87192 10.6933 9.87117C10.5343 9.87042 10.3756 9.89872 10.2295 9.95825C9.87067 10.1046 9.59228 10.4531 9.59228 11.0422C9.59228 11.5408 9.88108 11.8791 10.2502 12.0292C10.3984 12.0895 10.5581 12.1205 10.7167 12.1206C10.875 12.1208 11.0332 12.0904 11.1791 12.028H11.179ZM13.6775 9.60686C13.8891 10.0704 13.9669 10.5913 13.9669 11.2665C13.9669 11.4455 13.9263 11.6624 13.8682 11.8711C13.7989 12.1201 13.7026 12.3628 13.6223 12.5128C13.2968 13.1208 12.8164 13.5811 12.2626 13.8782C11.7891 14.1322 11.261 14.2673 10.7294 14.2738C10.1974 14.2803 9.66208 14.1579 9.17449 13.8968C8.62457 13.6024 8.13671 13.1336 7.78457 12.4771C7.54781 12.0357 7.44175 11.5298 7.44869 11.0206C7.4559 10.489 7.58611 9.95308 7.81892 9.48379C7.89682 9.32677 7.99139 9.17675 8.09779 9.03545C8.21093 8.88516 8.33618 8.74631 8.46782 8.62065C9.02073 8.09285 9.76841 7.79262 10.5192 7.73908C11.2685 7.68567 12.025 7.87766 12.6003 8.33382C13.1246 8.74957 13.4651 9.14192 13.6775 9.60693V9.60686ZM17.7893 20.8759C18.1613 20.7171 18.4524 20.3522 18.4524 19.7916C18.4524 19.2589 18.1774 18.9343 17.8222 18.7959C17.676 18.7389 17.5161 18.7115 17.3553 18.7123C17.1942 18.7132 17.032 18.743 16.8813 18.8001C16.5062 18.9424 16.2105 19.2616 16.2105 19.7355C16.2105 20.3412 16.4976 20.7167 16.8657 20.8768C17.0106 20.9398 17.1682 20.9708 17.3261 20.9706C17.484 20.9704 17.6425 20.9386 17.7893 20.8759ZM20.5845 19.9625C20.5848 19.8527 20.5852 19.723 20.5852 20.1281C20.5852 20.4529 20.5051 20.7931 20.3578 21.1228C20.1252 21.6438 19.7227 22.1399 19.2038 22.5049C18.6824 22.8717 18.0429 23.1082 17.3387 23.1082C16.8967 23.1082 16.4294 23.0146 15.9502 22.8005C15.8606 22.7605 15.7742 22.7169 15.6903 22.6675C15.6038 22.6167 15.522 22.5614 15.4444 22.4998L15.3032 22.3887C15.1648 22.2799 15.0956 22.2254 15.0251 22.1549L15.0242 22.154C14.9536 22.0835 14.8991 22.0141 14.7901 21.8756L14.6792 21.7347C14.263 21.2098 14.0593 20.5063 14.0702 19.7995C14.081 19.099 14.3019 18.3914 14.7348 17.8479C14.7854 17.7843 14.8297 17.737 14.879 17.6846C14.8929 17.6697 14.9073 17.6544 14.931 17.6286L14.9372 17.6216L15.1054 17.4534L15.1124 17.4472C15.2439 17.3265 15.3848 17.209 15.5374 17.1031C15.6923 16.9956 15.8617 16.8984 16.0492 16.8193C16.8598 16.4775 17.6969 16.4773 18.4356 16.7477C19.1941 17.0253 19.8474 17.5873 20.2601 18.3566C20.5771 18.9476 20.5855 19.3683 20.5846 19.9625H20.5845ZM20.2551 9.18403C20.451 9.37997 20.529 9.66822 20.529 10.0887C20.529 10.5251 19.7789 11.2244 19.3412 11.6324C19.2588 11.7093 19.1891 11.7743 19.1311 11.8323L10.4096 20.5537C10.3522 20.6112 10.2884 20.6797 10.2131 20.7605C9.81236 21.1905 9.12938 21.9236 8.6941 21.9236C8.17311 21.9236 7.51556 21.7497 7.51556 21.0255C7.51556 20.293 7.88614 19.9547 8.44306 19.4462C8.58505 19.3166 8.74064 19.1745 8.91358 19.0016L17.635 10.2801H17.6359C17.6804 10.2356 17.7497 10.1612 17.8316 10.0734C18.2323 9.64326 18.9153 8.9102 19.3505 8.9102C19.771 8.9102 20.0592 8.98823 20.2552 9.1841L20.2551 9.18403ZM22.4468 27.3336C22.0376 27.6026 21.5488 27.7565 20.977 27.7565C20.7009 27.7565 20.2354 27.6791 19.7333 27.5956C18.9589 27.4667 18.0913 27.3224 17.8595 27.4348C17.8061 27.4607 17.5558 27.6825 17.2542 27.9591C16.7542 28.4178 16.14 29.0094 15.9912 29.1613C15.6658 29.4935 15.3664 29.7028 15.0246 29.8308C14.686 29.9577 14.3192 30 13.854 30C12.7979 30 11.8196 29.0025 11.0259 28.1931C10.9355 28.101 10.8476 28.0113 10.7644 27.9281L10.6989 27.8625C10.1861 27.3481 10.1767 27.3387 9.22646 27.4703C9.1402 27.4823 8.95794 27.5096 8.75071 27.5408C8.1461 27.6316 7.31439 27.7565 7.01144 27.7565C6.47779 27.7565 5.98883 27.5922 5.57206 27.3068C5.13917 27.0105 4.78621 26.5844 4.54442 26.0782C4.3723 25.7177 4.25242 24.9502 4.14153 24.24C4.05036 23.6563 3.96553 23.1133 3.8779 22.9343C3.74347 22.6596 3.19104 22.3878 2.57438 22.0845C1.8001 21.7037 0.93322 21.2773 0.497604 20.6368C0.356298 20.4291 0.220573 20.1779 0.127369 19.8947C0.0492668 19.6572 -0.00019455 19.3965 -0.00019455 19.1184C-0.00019455 18.3661 0.557882 17.2644 0.963699 16.4633L1.09004 16.2139L1.10405 16.1859C1.3089 15.7766 1.40973 15.5751 1.40809 15.4102C1.40646 15.2506 1.30767 15.0536 1.11317 14.6657L1.0714 14.5823C0.991322 14.4222 0.927984 14.281 0.86478 14.1402C0.801579 13.9993 0.73851 13.8587 0.660545 13.704C0.612785 13.6092 0.580605 13.5477 0.547813 13.485C0.28541 12.9825 -0.000123978 12.4358 -0.000123978 11.7151C-0.000123978 11.1722 0.166285 10.6857 0.44243 10.2746C0.742865 9.82735 1.1729 9.47181 1.65811 9.23247C1.77983 9.17247 1.87215 9.11899 1.96426 9.06565C2.05434 9.01354 2.14428 8.96143 2.27395 8.89666V8.89578C2.33151 8.86707 2.43104 8.8191 2.53642 8.76835C3.06001 8.51622 3.75564 8.18122 3.8911 7.8697C3.98437 7.65519 4.06016 7.14902 4.14194 6.60272C4.24787 5.89531 4.36332 5.12388 4.5649 4.71555C4.81363 4.21176 5.15611 3.7903 5.59757 3.50007C6.00673 3.23113 6.49561 3.07717 7.06736 3.07717C7.34351 3.07717 7.80899 3.1546 8.31108 3.23814C9.08543 3.36699 9.95306 3.51136 10.1848 3.3989C10.2383 3.37305 10.4885 3.15126 10.7901 2.87464C11.2902 2.41589 11.9044 1.82427 12.0532 1.67242C12.3786 1.34022 12.678 1.13095 13.0198 1.00291C13.3584 0.876026 13.7252 0.83371 14.1904 0.83371C14.696 0.83371 15.1595 1.04046 15.5806 1.33266C15.9841 1.61269 16.344 1.96762 16.6632 2.28867C16.8477 2.47426 16.9979 2.63101 17.1269 2.76558C17.7956 3.4634 17.8308 3.50014 18.818 3.36339C19.0661 3.32903 19.3058 3.28876 19.5353 3.25018C20.6748 3.05867 21.5741 2.90757 22.5864 3.59695C23.495 4.21564 23.6479 5.10715 23.8022 6.00729C23.8241 6.13533 23.8461 6.26351 23.8661 6.36937C23.9295 6.70463 23.9739 6.97459 24.0099 7.19352C24.0785 7.61117 24.1144 7.82902 24.1912 7.9574C24.2681 8.08591 24.4309 8.1768 24.7709 8.36668C24.8937 8.43526 25.0365 8.515 25.1862 8.60194C25.3626 8.7044 25.554 8.80046 25.7538 8.90061C26.795 9.42283 28.0445 10.0495 28.0445 11.7152C28.0445 12.4653 27.5053 13.5305 27.1073 14.3167L26.9916 14.545C26.9175 14.6931 26.8645 14.7894 26.82 14.8699C26.6912 15.1038 26.6423 15.1924 26.6423 15.5291C26.6423 15.5468 26.7232 15.7318 26.8308 15.9703C27.0373 16.4277 27.3304 17.0236 27.4027 17.1669C27.6813 17.7188 27.9427 18.2399 28.024 18.8042C28.1078 19.3859 27.9991 19.9903 27.5233 20.6732C27.3897 20.8649 27.2242 21.0365 27.0379 21.1879C26.8387 21.3499 26.6167 21.4877 26.3863 21.6014C26.2645 21.6614 26.1722 21.7149 26.0801 21.7682C25.99 21.8203 25.9001 21.8724 25.7704 21.9372V21.9381C25.7126 21.9669 25.6133 22.0147 25.508 22.0655C24.9844 22.3176 24.2887 22.6526 24.1533 22.9641C24.06 23.1787 23.9842 23.6848 23.9024 24.2311C23.7966 24.9385 23.6811 25.7099 23.4795 26.1183C23.2307 26.6221 22.8883 27.0436 22.4468 27.3338V27.3336Z" fill="#000"/>
</svg>
