<svg width="24" height="24" viewBox="0 0 24 24" fill="none" xmlns="http://www.w3.org/2000/svg">
<path d="M19.8809 8.82298H14.1004C15.3439 8.41621 16.6423 7.56412 17.1432 7.06327C18.2606 5.94587 18.2608 4.13723 17.1432 3.01975C16.0259 1.90231 14.2172 1.90223 13.0997 3.01975C12.7697 3.34981 12.3809 3.90387 12.0394 4.51283C11.698 3.90387 11.3092 3.34981 10.9791 3.01975C9.86168 1.90236 8.05313 1.90227 6.93561 3.01975C5.81817 4.13719 5.81808 5.94574 6.93561 7.06327C7.4365 7.56416 8.73498 8.41625 9.97858 8.82302H4.19791C3.78702 8.82302 3.45392 9.15612 3.45392 9.56701V13.0007C3.45392 13.4116 3.78702 13.7447 4.19791 13.7447H4.93031V21.0832C4.93031 21.494 5.26342 21.8271 5.6743 21.8271H10.194C10.194 21.7257 10.194 8.9427 10.194 8.82298H11.9092H13.8847C13.8847 8.94326 13.8847 21.728 13.8847 21.8271H18.4044C18.8153 21.8271 19.1484 21.494 19.1484 21.0832V13.7447H19.8808C20.2917 13.7447 20.6248 13.4116 20.6248 13.0007V9.56701C20.6249 9.15608 20.2918 8.82298 19.8809 8.82298ZM8.22444 5.77443C7.81934 5.36934 7.81926 4.71373 8.22444 4.30854C8.62954 3.90345 9.28519 3.9034 9.69033 4.30854C9.93051 4.54872 10.3703 5.19177 10.7124 5.91045C10.9657 6.44252 11.114 7.17437 11.1124 7.22407C10.295 7.14907 8.73545 6.28549 8.22444 5.77443ZM12.9361 7.22703C12.9705 6.82266 13.1912 6.2785 13.3664 5.91045C13.7085 5.19177 14.1483 4.54872 14.3885 4.30854C14.7936 3.90345 15.4492 3.9034 15.8544 4.30854C16.2595 4.71368 16.2595 5.36925 15.8543 5.77443C15.3339 6.29501 13.7401 7.17141 12.9361 7.22703Z" fill="#000"/>
</svg>
