<svg width="22" height="24" viewBox="0 0 22 24" fill="none" xmlns="http://www.w3.org/2000/svg">
<path fill-rule="evenodd" clip-rule="evenodd" d="M6.44883 0.740636C6.44883 0.987515 6.57292 1.11095 6.69701 1.23439C6.75905 1.29611 7.00723 1.48127 7.13132 1.48127C7.04736 1.60655 6.9066 1.64706 6.72825 1.6984L6.72825 1.6984C6.643 1.72294 6.54916 1.74995 6.44883 1.78987C6.29848 1.85785 6.17824 1.91086 6.0755 1.95615L6.07549 1.95616L6.07548 1.95616C5.7119 2.11644 5.5676 2.18005 5.08385 2.46879C4.40135 2.8391 3.84295 3.33286 3.28455 3.88834L2.78819 4.3821C2.72615 4.44382 2.69512 4.49011 2.6641 4.5364C2.63308 4.58269 2.60206 4.62898 2.54001 4.6907C2.47797 4.75242 2.44694 4.7987 2.41592 4.84499C2.3849 4.89128 2.35388 4.93757 2.29183 4.99929C2.1057 5.18445 1.98161 5.36961 1.85752 5.61649C1.48525 6.11025 0.988893 7.09776 0.740714 7.71496C-0.314047 10.3689 -0.252002 13.5166 0.988893 16.1088C1.91956 18.0839 3.34659 19.6269 5.20793 20.7995L6.07656 21.2316C6.57292 21.4784 8.43426 22.1574 8.99266 22.0956C9.7372 22.0339 9.86129 21.0464 9.1788 20.7378C9.05108 20.6743 8.87225 20.6398 8.63729 20.5945C8.18738 20.5078 7.53166 20.3815 6.63496 19.9355C5.45611 19.38 4.89771 18.9479 4.02908 18.0221C3.66021 17.6552 3.53501 17.4768 3.36732 17.2378C3.28116 17.115 3.18378 16.9763 3.03637 16.7878C2.04365 15.4916 1.42321 13.2697 1.42321 11.6033C1.42321 10.4306 1.67138 9.31967 1.98161 8.4556L2.54001 7.15948C3.40864 5.61649 4.64953 4.25866 6.26269 3.4563C6.57292 3.27114 7.25541 2.96254 7.56563 2.8391C7.55352 2.87524 7.52487 2.92313 7.49028 2.98095C7.34765 3.21935 7.10411 3.62643 7.50359 4.0735C7.68972 4.32038 8.31017 4.44382 8.62039 3.88834C8.67876 3.77223 8.81032 3.54689 8.96344 3.28463C9.29866 2.71047 9.7372 1.95934 9.7372 1.78987C9.7372 1.33878 9.36895 1.13191 8.96473 0.904818C8.87119 0.852265 8.77572 0.79863 8.68244 0.740636C8.55835 0.678916 8.44977 0.617197 8.34119 0.555477C8.23261 0.493757 8.12404 0.432038 7.99995 0.370318C7.92722 0.326912 7.86132 0.283505 7.79903 0.242484L7.79903 0.24248C7.59563 0.10852 7.43086 0 7.19337 0C6.8211 0 6.51087 0.308598 6.51087 0.678916L6.44883 0.740636ZM9.91699 13.3361V12.7389C9.91699 11.8159 11.2351 11.8159 11.2351 12.7389C11.2351 12.8145 11.2375 12.8922 11.2399 12.9704V12.9704C11.2495 13.2853 11.2593 13.6073 11.1153 13.8248C10.8157 14.2048 9.91699 14.1505 9.91699 13.3361ZM10.5761 6.71244C10.9356 6.71244 11.4748 6.87532 11.7744 6.98391C12.3736 7.25537 12.9128 7.79829 13.1525 8.34122C13.2723 8.72127 13.3322 8.99273 13.3322 9.48136H7.87983C7.87983 8.99273 7.93974 8.72127 8.05958 8.34122C8.18679 8.03383 8.28399 7.9168 8.41489 7.75917L8.4149 7.75916C8.46896 7.69406 8.52878 7.62204 8.59883 7.52683C9.01824 7.0382 9.91699 6.71244 10.5761 6.71244ZM6.56167 9.69853C6.54207 9.7036 6.52207 9.70986 6.50177 9.71724C6.50301 8.54751 6.56884 8.00625 7.28066 7.09249C7.44254 6.90913 7.63176 6.75055 7.81138 6.6C7.89769 6.52766 7.98179 6.45717 8.05958 6.38669C8.14944 6.33241 8.26925 6.26455 8.38906 6.1967L8.38911 6.19667C8.50895 6.1288 8.62878 6.06094 8.71866 6.00664C9.55749 5.6266 9.85707 5.5723 10.8157 5.5723C12.2537 5.5723 13.512 6.44098 14.1111 7.36395C14.5905 8.12405 14.6504 8.77556 14.6504 9.75282C14.8901 9.80711 15.1896 10.0786 15.3095 10.2415C15.4892 10.4043 15.669 10.7301 15.669 11.0015V15.0735C15.669 15.8336 14.8301 16.5937 13.9913 16.5937H7.22075C6.38192 16.5937 5.54309 15.8336 5.54309 15.0735V11.0015C5.54309 10.484 6.08756 9.86777 6.50177 9.71724L6.50175 9.75282L6.56167 9.69853ZM12.0331 2.46866C11.7849 2.34522 11.5987 2.09834 11.5987 1.78974L11.6608 1.72802C11.6608 1.48114 11.909 1.11083 12.3433 1.11083C12.7459 1.05361 13.8418 1.42076 14.2961 1.57297C14.3318 1.58494 14.3636 1.59558 14.3908 1.60458C15.0112 1.78974 15.5696 2.03662 16.128 2.40694L17.9273 3.76477L18.2375 4.07337L18.5478 4.38197C18.6098 4.44369 18.6563 4.50541 18.7029 4.56712C18.7494 4.62885 18.7959 4.69057 18.858 4.75229C19.0234 4.91687 19.1337 5.08146 19.244 5.24604C19.2992 5.32833 19.3543 5.41063 19.4164 5.49292C19.7886 5.98668 20.0989 6.54216 20.3471 7.09763C21.8361 10.2453 21.5879 13.8868 19.9127 16.9111C19.8817 16.9728 19.8507 17.0191 19.8197 17.0654C19.7886 17.1117 19.7576 17.1579 19.7266 17.2197C19.6956 17.2814 19.6646 17.3277 19.6335 17.374C19.6025 17.4203 19.5715 17.4665 19.5405 17.5283L19.4873 17.597C18.9088 18.3454 18.714 18.5973 18.0514 19.2564C17.2448 20.0588 16.5623 20.4908 15.5696 21.0463L14.4528 21.54C14.4195 21.5566 14.3908 21.5687 14.364 21.5799C14.291 21.6106 14.2334 21.6348 14.1426 21.7252C14.2667 21.7252 14.5148 21.9104 14.5769 21.9721C14.8871 22.219 14.8871 22.7127 14.5769 22.9596C14.1296 23.3551 13.6425 23.0378 13.0838 22.6738C12.9449 22.5834 12.8017 22.4901 12.6535 22.4041C12.5916 22.3652 12.5326 22.3283 12.4764 22.2933C11.4635 21.6606 11.3799 21.6084 11.909 20.6142C11.971 20.4908 12.0331 20.3828 12.0951 20.2748C12.1571 20.1668 12.2192 20.0588 12.2812 19.9353C12.4053 19.6884 12.5294 19.4416 12.6535 19.2564C12.9637 18.7009 13.5842 18.8244 13.7703 19.0713C14.1698 19.5183 13.9262 19.9254 13.7836 20.1638C13.749 20.2216 13.7204 20.2695 13.7083 20.3056C14.3908 20.1822 15.6937 19.3799 16.1901 19.0095C19.1062 16.7876 20.4711 13.2079 19.6646 9.56642C19.4164 8.51719 18.92 7.28279 18.2996 6.41872C17.4309 5.1226 16.066 3.88821 14.6389 3.27101C14.5932 3.25035 14.5495 3.23051 14.5074 3.21143C13.921 2.94561 13.6584 2.82658 12.9637 2.65382C12.8534 2.62639 12.6941 2.59896 12.5348 2.57153C12.3356 2.53724 12.1365 2.50295 12.0331 2.46866Z" fill="white"/>
</svg>
