<svg width="18" height="17" viewBox="0 0 18 17" fill="none" xmlns="http://www.w3.org/2000/svg">
<path fill-rule="evenodd" clip-rule="evenodd" d="M14.5938 0.899419C14.4233 1.06318 14.4233 1.32869 14.5938 1.49245L16.4461 3.27156C16.6166 3.43532 16.8931 3.43532 17.0636 3.27156L17.8721 2.49497C18.0129 2.35978 18.0406 2.15027 17.9395 1.98556L17.2527 0.866114C17.2152 0.804875 17.162 0.753814 17.0982 0.717727L15.9327 0.0580695C15.7612 -0.0389908 15.5431 -0.0123556 15.4023 0.122831L14.5938 0.899419ZM13.4179 2.02891C13.5884 1.86515 13.8648 1.86515 14.0353 2.02891L15.8877 3.80802C16.0582 3.97178 16.0582 4.23729 15.8877 4.40105L8.60571 11.3951C8.5436 11.4548 8.46418 11.495 8.37786 11.5107L6.09533 11.9239C5.79324 11.9785 5.52848 11.7242 5.58542 11.4341L6.01561 9.24182C6.03188 9.15891 6.07381 9.08263 6.13593 9.02297L13.4179 2.02891ZM2.4013 0.64579C1.0751 0.64579 0 1.67838 0 2.95215V14.6936C0 15.9674 1.0751 17 2.4013 17H14.6261C15.9523 17 17.0274 15.9674 17.0274 14.6936V7.98422C17.0274 7.63683 16.7342 7.35521 16.3725 7.35521C16.0108 7.35521 15.7176 7.63683 15.7176 7.98422V14.6936C15.7176 15.2726 15.2289 15.742 14.6261 15.742H2.4013C1.79848 15.742 1.3098 15.2726 1.3098 14.6936V2.95215C1.3098 2.37317 1.79848 1.90381 2.4013 1.90381H9.82351C10.1852 1.90381 10.4784 1.62219 10.4784 1.2748C10.4784 0.927407 10.1852 0.64579 9.82351 0.64579H2.4013Z" fill="#F35459"/>
</svg>
