<svg width="32" height="32" viewBox="0 0 32 32" fill="none" xmlns="http://www.w3.org/2000/svg">
<path fill-rule="evenodd" clip-rule="evenodd" d="M24.3132 29.1919H22.4669V20.1017H16.937V29.1919H15.0907V23.736H9.56082V29.1919H7.71447V27.3703H2.18461V29.1919H1.08231C0.0259471 29.1919 0.0259471 31.0136 1.08231 31.0136H30.9178C31.9742 31.0136 31.9742 29.1919 30.9178 29.1919H29.8155V16.4675H24.2857V29.1919H24.3132ZM2.21217 22.7119V25.5577H7.74203V22.7119C7.74203 22.3403 7.31948 21.9234 6.94286 21.9234H3.01133C2.63472 21.9234 2.21217 22.3403 2.21217 22.7119ZM9.57919 19.0776V21.9234H15.109V19.0776C15.109 18.706 14.6865 18.2891 14.3099 18.2891H10.3784C10.0017 18.2891 9.57919 18.706 9.57919 19.0776ZM16.9462 15.4434V18.2891H22.4761V15.4434C22.4761 15.0718 22.0535 14.6549 21.6769 14.6549H17.7454C17.3688 14.6549 16.9462 15.0718 16.9462 15.4434ZM24.3132 11.8091V14.6549H29.8431V11.8091C29.8431 11.4375 29.4205 11.0206 29.0439 11.0206H25.1124C24.7358 11.0206 24.3132 11.4375 24.3132 11.8091ZM22.4669 4.42275C22.4669 5.63719 23.3763 5.45593 24.3132 5.45593V8.42859C24.3132 8.80018 24.7358 9.21707 25.1124 9.21707H29.0439C29.4205 9.21707 29.8431 8.80018 29.8431 8.42859V5.45593H30.8903C31.3863 5.45593 31.6894 5.01184 31.6894 4.42275C31.6894 3.96053 29.9809 2.46514 29.5859 2.07543C29.1909 1.68572 27.6752 0 27.2068 0C26.4535 0 26.3341 0.344394 25.7187 0.951615L23.4773 3.16299C23.2109 3.42582 22.4761 3.98772 22.4761 4.42275H22.4669ZM0.301521 7.75793C0.301521 10.0146 0.650582 11.1837 1.82637 12.9238C3.13075 14.8543 5.84056 16.3678 8.16457 16.3678C10.4335 16.3678 11.646 16.0234 13.4005 14.8633C14.117 14.392 14.8886 13.6308 15.3662 12.9238C15.504 12.7245 15.6234 12.5523 15.7612 12.3438C17.1299 10.1143 17.2953 7.03289 16.0919 4.67651C15.9817 4.46806 15.8898 4.25055 15.7612 4.03304C15.0172 2.81859 14.0619 1.84885 12.8126 1.12381C11.6644 0.45315 10.4427 0.09063 9.20257 0.009063H8.13702C6.63054 0.108756 5.15163 0.625347 3.80131 1.51352C1.83555 2.80953 0.310707 5.46499 0.310707 7.76699L0.301521 7.75793ZM9.27606 3.31706C9.72616 3.3805 10.1303 3.50738 10.4794 3.68864C10.8285 3.8699 11.1224 4.07835 11.3612 4.31399C11.6001 4.54963 11.7838 4.79433 11.9124 5.04809C12.041 5.30186 12.1145 5.52843 12.1237 5.72782C12.1328 5.80938 12.1053 5.88189 12.041 5.93627C11.9767 5.99971 11.9032 6.0269 11.8205 6.0269H11.251C11.15 6.0269 11.0673 6.00877 11.0122 5.97252C10.9479 5.93627 10.8928 5.8547 10.8285 5.72782C10.7825 5.63719 10.709 5.51937 10.5988 5.38342C10.4886 5.23842 10.3508 5.10247 10.1671 4.97559C9.98336 4.83964 9.77209 4.73089 9.51489 4.63119C9.25768 4.5315 8.95455 4.48619 8.61468 4.48619C8.35747 4.48619 8.10946 4.51338 7.87981 4.57682C7.64098 4.64026 7.43889 4.72182 7.25518 4.83964C7.07146 4.95746 6.92449 5.10247 6.81426 5.28373C6.70403 5.46499 6.64891 5.66438 6.64891 5.90001C6.64891 6.13565 6.70403 6.33504 6.80507 6.49817C6.9153 6.66131 7.08065 6.80631 7.31948 6.94226C7.55831 7.07821 7.85226 7.19602 8.2105 7.30478C8.56875 7.41354 9.00967 7.54042 9.52407 7.67636C10.0477 7.81231 10.4886 7.96638 10.856 8.12951C11.2234 8.29265 11.5174 8.47391 11.747 8.68236C11.9767 8.89081 12.142 9.12644 12.2523 9.38927C12.3625 9.66116 12.4084 9.96024 12.4084 10.2956C12.4084 10.6672 12.3349 11.0115 12.188 11.3288C12.041 11.646 11.8297 11.9269 11.5633 12.1625C11.2877 12.3982 10.9662 12.5976 10.5804 12.7516C10.1946 12.9057 9.7629 13.0054 9.29443 13.0507V13.9389C9.29443 14.0386 9.25768 14.1292 9.1842 14.2017C9.11071 14.2742 9.01885 14.3105 8.91781 14.3105H8.34829C8.24724 14.3105 8.15539 14.2742 8.0819 14.2017C8.00841 14.1292 7.97167 14.0386 7.97167 13.9389V13.0235C7.53075 12.9601 7.12658 12.8423 6.76833 12.6701C6.41008 12.4979 6.09777 12.2985 5.84056 12.0719C5.57417 11.8453 5.37209 11.6006 5.22511 11.3288C5.07814 11.0569 4.99547 10.8031 4.98628 10.5493C4.98628 10.4678 5.01384 10.3953 5.07814 10.3409C5.14244 10.2774 5.20674 10.2503 5.28941 10.2503H5.85893C5.95079 10.2503 6.03347 10.2684 6.09777 10.3046C6.17125 10.3409 6.22637 10.4225 6.28148 10.5493C6.3366 10.6762 6.41927 10.8122 6.53868 10.9662C6.6581 11.1203 6.80507 11.2562 6.99798 11.3922C7.19088 11.5281 7.42971 11.6369 7.70528 11.7275C7.98086 11.8182 8.31155 11.8635 8.68816 11.8635C9.00967 11.8635 9.3128 11.8272 9.60674 11.7547C9.90069 11.6822 10.1487 11.5735 10.3692 11.4375C10.5896 11.3016 10.7642 11.1384 10.8928 10.9481C11.0214 10.7578 11.0857 10.5403 11.0857 10.3046C11.0857 10.069 11.0122 9.86961 10.8652 9.69741C10.7182 9.52522 10.507 9.38021 10.2314 9.24426C9.9558 9.10832 9.61593 8.98144 9.22094 8.87268C8.81676 8.75486 8.36666 8.63704 7.86144 8.51016C7.40215 8.39234 7.00716 8.24733 6.68566 8.0842C6.36415 7.912 6.09777 7.72168 5.89568 7.50417C5.69359 7.28665 5.54662 7.04195 5.46395 6.77913C5.37209 6.5163 5.33534 6.22628 5.33534 5.91814C5.33534 5.61906 5.39046 5.31998 5.50069 5.02997C5.61092 4.73995 5.77626 4.47712 5.98754 4.24149C6.208 4.00585 6.47438 3.80646 6.80507 3.64333C7.13576 3.48019 7.52157 3.37144 7.96248 3.31706V2.41982C7.96248 2.32013 7.99923 2.2295 8.07271 2.15699C8.1462 2.08449 8.23806 2.04824 8.3391 2.04824H8.90862C9.00967 2.04824 9.10153 2.08449 9.17501 2.15699C9.2485 2.2295 9.28524 2.32013 9.28524 2.41982V3.33519L9.27606 3.31706Z" fill="#E5474C"/>
</svg>
