<svg width="59" height="24" viewBox="0 0 59 24" fill="none" xmlns="http://www.w3.org/2000/svg">
<rect width="59" height="24" rx="12" transform="matrix(1 0 0 -1 0 24)" fill="#F1F1F1"/>
<path d="M32.38 7.6C32.772 7.6 33.14 7.652 33.484 7.756C33.836 7.852 34.144 8.004 34.408 8.212C34.672 8.42 34.88 8.684 35.032 9.004C35.192 9.324 35.272 9.704 35.272 10.144C35.272 10.584 35.192 10.968 35.032 11.296C34.88 11.616 34.672 11.884 34.408 12.1C34.144 12.316 33.836 12.476 33.484 12.58C33.14 12.684 32.772 12.736 32.38 12.736H30.172V15.676C30.172 15.764 30.14 15.84 30.076 15.904C30.012 15.968 29.936 16 29.848 16H29.356C29.268 16 29.192 15.968 29.128 15.904C29.064 15.84 29.032 15.764 29.032 15.676V7.924C29.032 7.836 29.064 7.76 29.128 7.696C29.192 7.632 29.268 7.6 29.356 7.6H32.38ZM30.172 11.656H32.32C32.896 11.656 33.34 11.532 33.652 11.284C33.972 11.036 34.132 10.656 34.132 10.144C34.132 9.632 33.972 9.26 33.652 9.028C33.34 8.796 32.896 8.68 32.32 8.68H30.172V11.656ZM36.0598 10.132C36.0518 10.108 36.0478 10.08 36.0478 10.048C36.0478 9.968 36.0758 9.9 36.1318 9.844C36.1878 9.788 36.2558 9.76 36.3358 9.76H36.8278C36.9238 9.76 36.9958 9.792 37.0438 9.856C37.0998 9.92 37.1438 9.984 37.1758 10.048L39.2398 14.392L41.2918 10.048C41.3238 9.984 41.3638 9.92 41.4118 9.856C41.4678 9.792 41.5438 9.76 41.6398 9.76H42.1318C42.2118 9.76 42.2798 9.788 42.3358 9.844C42.3918 9.9 42.4198 9.968 42.4198 10.048C42.4198 10.08 42.4158 10.108 42.4078 10.132L39.8758 15.52C39.7158 15.848 39.5638 16.176 39.4198 16.504C39.2838 16.832 39.1278 17.128 38.9518 17.392C38.7838 17.656 38.5878 17.868 38.3638 18.028C38.1398 18.196 37.8678 18.28 37.5478 18.28H37.0558C36.9678 18.28 36.8918 18.248 36.8278 18.184C36.7638 18.12 36.7318 18.044 36.7318 17.956V17.572C36.7318 17.484 36.7638 17.408 36.8278 17.344C36.8918 17.28 36.9678 17.248 37.0558 17.248H37.3678C37.5358 17.248 37.6758 17.204 37.7878 17.116C37.8998 17.036 38.0038 16.924 38.0998 16.78C38.1958 16.636 38.2838 16.464 38.3638 16.264C38.4518 16.072 38.5478 15.86 38.6518 15.628L36.0598 10.132ZM44.1884 13.3C44.2204 13.62 44.2884 13.892 44.3924 14.116C44.5044 14.34 44.6364 14.524 44.7884 14.668C44.9484 14.812 45.1244 14.92 45.3164 14.992C45.5084 15.056 45.7044 15.088 45.9044 15.088C46.2884 15.088 46.6164 15.016 46.8884 14.872C47.1604 14.728 47.3724 14.488 47.5244 14.152C47.5804 14.024 47.6364 13.94 47.6924 13.9C47.7564 13.852 47.8324 13.828 47.9204 13.828H48.2804C48.3684 13.828 48.4444 13.86 48.5084 13.924C48.5804 13.988 48.6124 14.064 48.6044 14.152C48.5964 14.344 48.5324 14.556 48.4124 14.788C48.3004 15.012 48.1284 15.224 47.8964 15.424C47.6724 15.616 47.3924 15.78 47.0564 15.916C46.7284 16.052 46.3444 16.12 45.9044 16.12C45.4644 16.12 45.0724 16.048 44.7284 15.904C44.3924 15.76 44.1044 15.564 43.8644 15.316C43.6324 15.068 43.4484 14.776 43.3124 14.44C43.1844 14.104 43.1124 13.744 43.0964 13.36C43.0884 13.232 43.0804 13.076 43.0724 12.892C43.0724 12.7 43.0804 12.536 43.0964 12.4C43.1284 12.016 43.2084 11.656 43.3364 11.32C43.4724 10.984 43.6564 10.692 43.8884 10.444C44.1204 10.196 44.4044 10 44.7404 9.856C45.0764 9.712 45.4644 9.64 45.9044 9.64C46.3444 9.64 46.7284 9.708 47.0564 9.844C47.3924 9.98 47.6724 10.148 47.8964 10.348C48.1284 10.54 48.3004 10.752 48.4124 10.984C48.5324 11.208 48.5964 11.416 48.6044 11.608C48.6124 11.696 48.5804 11.772 48.5084 11.836C48.4444 11.9 48.3684 11.932 48.2804 11.932H47.9204C47.8324 11.932 47.7564 11.912 47.6924 11.872C47.6364 11.824 47.5804 11.736 47.5244 11.608C47.3724 11.272 47.1604 11.032 46.8884 10.888C46.6164 10.744 46.2884 10.672 45.9044 10.672C45.7044 10.672 45.5044 10.708 45.3044 10.78C45.1124 10.844 44.9364 10.948 44.7764 11.092C44.6244 11.236 44.4924 11.42 44.3804 11.644C44.2764 11.868 44.2124 12.14 44.1884 12.46C44.1644 12.756 44.1644 13.036 44.1884 13.3Z" fill="#F35459"/>
<path fill-rule="evenodd" clip-rule="evenodd" d="M4 11.856C4 13.4354 4.1603 14.067 4.70979 15.4214C4.97068 16.0646 5.38946 16.6304 5.8049 17.1753C5.89223 17.2897 5.95609 17.3344 6.03483 17.4349C6.34456 17.83 6.88616 18.2656 7.29021 18.5631C7.66575 18.8398 8.03795 19.0569 8.47439 19.2703C9.19062 19.6205 10.3013 19.9303 11.3276 20H12.1293C12.2014 19.9943 12.2726 19.987 12.342 19.9779C12.453 19.9633 12.6427 19.9402 12.7272 19.9384C12.7272 19.721 12.7164 19.4793 12.6885 19.2682C12.649 18.9655 12.6709 18.9331 12.7394 18.655C12.8019 18.401 13 17.6799 13 17.4704L12.7445 16.5275C12.6448 16.1685 12.3606 15.6198 12.1627 15.2979C12.0208 15.0672 12.2327 14.9449 12.4199 14.4738C12.4768 14.3311 12.5757 14.1792 12.6061 14.0463C12.5284 14.0397 12.2334 13.9499 12.1541 13.9202C11.9889 13.8578 11.7347 13.5235 11.5541 13.3587C11.4265 13.2424 10.6242 13.0999 10.375 13.0477C10.0539 12.9803 10.1051 12.6288 9.82655 12.1869C9.79033 12.1293 9.81465 12.165 9.78788 12.1336V12.6272C9.54447 12.6272 9.60538 12.665 9.45469 12.442L8.65778 11.3405C8.47702 11.0964 8.48367 11.1479 8.48489 10.7455C8.4882 9.5541 8.58395 10.034 7.97145 8.98528C7.90005 8.86309 7.72665 8.62311 7.69688 8.49342L6.61002 8.68261C6.10797 8.76884 6.14334 8.74034 5.6061 8.74034C5.46383 8.74034 5.21797 8.53102 5.09092 8.46263C5.20362 8.29142 5.50987 8.14625 5.6061 8C5.52647 8.00177 5.13081 8.07998 5.0694 8.13219C5.00257 8.18902 4.87865 8.46319 4.82825 8.56542C4.36453 9.50974 4 10.6983 4 11.8561L4 11.856Z" fill="#F35459"/>
<path fill-rule="evenodd" clip-rule="evenodd" d="M14.702 7.51097C14.5857 7.53717 14.5126 7.58881 14.4147 7.63704C14.2499 7.71789 14.0479 7.62351 13.7995 7.51951C13.6924 7.47481 13.5815 7.43474 13.4893 7.38754V6.98668C13.2639 6.93595 13.0656 6.79544 12.819 6.74006C12.7444 7.04938 12.6692 7.36048 12.5956 7.66515C12.4895 7.67368 11.9998 7.78483 11.9255 7.81918C11.9589 7.95826 11.9893 8.17372 11.9893 8.34344C12.1964 8.34788 12.6749 8.48093 12.883 8.49765C12.9241 8.32651 12.9864 7.80905 13.0424 7.69596C13.0743 7.66532 13.371 7.7232 13.4208 7.73122C13.5616 7.75419 13.6934 7.75134 13.8146 7.81311C14.2327 8.02645 13.9485 7.97339 14.6383 7.97339L14.8619 8.46666C14.9544 8.66966 15.0342 8.74198 15.1888 8.89085C15.3735 9.06876 15.7659 9.49079 15.9469 9.6078C15.9354 9.73938 15.8862 9.83696 15.8829 9.97785C15.2028 9.96324 15.2998 9.74903 14.7238 10.0605C14.5589 10.1497 14.4411 10.2118 14.2658 10.2966C13.6171 10.61 13.8511 10.43 13.4475 10.8935L12.7805 11.6676C12.7376 11.7451 12.7168 11.8473 12.698 11.9271C12.6353 12.1944 12.6974 12.1673 12.3404 12.1673C12.1856 12.1673 11.7519 11.9052 11.6661 11.8998C11.5321 11.8917 11.1686 12.1294 11 12.1673C11.0072 12.2515 11.1311 12.7576 11.1594 12.815C11.2733 12.7412 11.3489 12.6577 11.4149 12.5373C11.6336 12.5373 11.7557 12.5202 11.9256 12.5065L11.8935 13.0308C11.8935 13.174 12.2029 13.1365 12.35 13.2682L12.6915 13.6475C13.4116 13.4854 13.144 13.3914 14.12 13.5932C14.5679 13.6858 14.7671 13.7983 15.2113 13.8339C15.388 13.848 15.4085 13.8781 15.5091 13.9778L16.0791 14.599C16.2174 14.7489 16.7791 15.0265 16.982 15.1451C17.088 15.2071 17.1595 15.2477 17.2611 15.3072C17.3637 15.3672 17.448 15.4057 17.5425 15.4669L16.8191 16.8032C16.556 17.3136 16.5359 17.169 15.9148 17.4713C15.4665 17.6895 15.7323 17.5124 15.3331 18.4511C15.2538 18.6375 14.918 18.7919 14.7468 18.9022C14.5223 19.0468 14.3421 19.1739 14.1213 19.3155C13.9943 19.3967 13.9016 19.415 13.8521 19.5796C13.8128 19.7099 13.7553 19.8752 13.7446 20L14.4114 19.8116C14.6119 19.75 14.8259 19.6618 15.0351 19.5817C15.2564 19.4969 15.4105 19.4102 15.6171 19.3114L16.189 19.0005C16.9192 18.5788 17.9559 17.6432 18.4425 16.9531L19.3937 15.3127C19.8739 14.1534 19.9962 13.3341 20 12.0735V12.0131C20 11.3224 19.7764 10.3408 19.5492 9.73515L19.3572 9.24223C19.0743 8.58031 18.9289 8.4617 18.6277 7.9118C18.3944 8.01989 17.3376 8.09682 17.0639 8.09682C17.0108 8.1935 16.9524 8.28844 16.8853 8.38692C16.8264 8.47329 16.739 8.58781 16.7128 8.68271C16.5363 8.60078 16.488 8.65082 16.2416 8.42877L15.8589 8.08919C15.325 7.56136 15.5171 7.97506 15.2653 7.24423C15.0394 6.588 15.0196 6.70449 14.4877 6.23791C14.3803 6.14352 14.3984 6.15102 14.2275 6.1193C14.0825 6.09223 13.7264 6.05056 13.6169 6C13.6169 6.60636 13.6206 6.35225 14.088 6.80919C14.2207 6.93883 14.6608 7.36124 14.7021 7.51097H14.702Z" fill="#F35459"/>
<path fill-rule="evenodd" clip-rule="evenodd" d="M9.82394 4.90329C9.94046 4.93291 10.1125 5.04972 10.2011 5.04485C10.2767 5.04075 10.5163 4.92917 10.6181 4.90329C10.6913 5.05491 10.7803 5.20319 10.8535 5.35481L10.0529 5.57423C9.75006 5.66813 9.88597 5.64686 9.38265 5.35481C9.44074 5.17876 9.6451 5.19611 9.82394 4.90329ZM11.5424 4.00004H12.173C13.034 4.04065 13.8904 4.24908 14.7077 4.64419C14.8181 4.69766 14.8901 4.71312 15 4.80104C14.3724 4.90202 14.4396 4.74198 13.9713 4.74198C13.9706 4.74198 13.5555 5.04206 13.5125 5.07745C13.3201 5.2356 13.2659 5.40381 13.1405 5.50813C13.0353 5.59532 11.9832 5.67746 11.7653 5.67746C11.5232 5.67746 11.4191 5.61282 11.1769 5.61282C11.1477 5.73333 10.8975 6.1055 10.8239 6.25806C10.5358 6.25806 10.3632 6.28993 10.0877 6.28935C9.70673 6.2884 9.97289 6.3998 9.4606 6.23701C8.89935 6.05856 9.09981 6.05856 8.66699 6.31189L8.44108 6.45124L7.1593 6.65836C6.81973 6.71945 6.19923 6.98174 6 7C6.07322 6.84802 6.3693 6.51512 6.4926 6.37897C6.74112 6.10477 7.04991 5.83039 7.33629 5.59438L7.97668 5.13538C8.09015 5.06068 8.17714 4.99883 8.29415 4.9353C9.32029 4.37721 10.428 4.05198 11.5424 4V4.00004ZM11.7064 5.16126C11.7385 5.02957 11.7188 5.09531 11.821 5.02881C12.0114 4.90532 12.7819 4.38709 12.883 4.38709C12.9683 4.38709 13.219 4.6108 13.3537 4.6451C13.2997 4.73359 12.7344 5.20653 12.6825 5.23186C12.5543 5.29426 12.3054 5.29295 12.1682 5.31477C11.8825 5.36003 11.8932 5.21604 11.7064 5.16126Z" fill="#F35459"/>
</svg>
