<svg width="59" height="24" viewBox="0 0 59 24" fill="none" xmlns="http://www.w3.org/2000/svg">
<rect width="59" height="24" rx="12" transform="matrix(1 0 0 -1 0 24)" fill="#F1F1F1"/>
<path d="M32.056 16.12C31.376 16.12 30.792 16.004 30.304 15.772C29.816 15.532 29.44 15.168 29.176 14.68C28.912 14.184 28.764 13.564 28.732 12.82C28.724 12.468 28.72 12.132 28.72 11.812C28.72 11.484 28.724 11.144 28.732 10.792C28.764 10.056 28.916 9.444 29.188 8.956C29.468 8.46 29.852 8.092 30.34 7.852C30.836 7.604 31.408 7.48 32.056 7.48C32.712 7.48 33.284 7.604 33.772 7.852C34.268 8.092 34.656 8.46 34.936 8.956C35.216 9.444 35.368 10.056 35.392 10.792C35.408 11.144 35.416 11.484 35.416 11.812C35.416 12.132 35.408 12.468 35.392 12.82C35.368 13.564 35.22 14.184 34.948 14.68C34.684 15.168 34.308 15.532 33.82 15.772C33.332 16.004 32.744 16.12 32.056 16.12ZM32.056 15.1C32.672 15.1 33.172 14.916 33.556 14.548C33.948 14.18 34.16 13.584 34.192 12.76C34.208 12.4 34.216 12.08 34.216 11.8C34.216 11.512 34.208 11.192 34.192 10.84C34.176 10.288 34.072 9.84 33.88 9.496C33.696 9.152 33.448 8.9 33.136 8.74C32.824 8.58 32.464 8.5 32.056 8.5C31.664 8.5 31.312 8.58 31 8.74C30.688 8.9 30.436 9.152 30.244 9.496C30.06 9.84 29.956 10.288 29.932 10.84C29.924 11.192 29.92 11.512 29.92 11.8C29.92 12.08 29.924 12.4 29.932 12.76C29.964 13.584 30.176 14.18 30.568 14.548C30.96 14.916 31.456 15.1 32.056 15.1ZM36.9971 9.796C36.9331 9.796 36.8811 9.772 36.8411 9.724C36.8091 9.676 36.7971 9.616 36.8051 9.544L37.0811 7.828C37.0971 7.732 37.1291 7.652 37.1771 7.588C37.2331 7.516 37.3131 7.48 37.4171 7.48H38.2211C38.2771 7.48 38.3211 7.504 38.3531 7.552C38.3931 7.592 38.4131 7.636 38.4131 7.684C38.4131 7.748 38.3971 7.812 38.3651 7.876L37.7411 9.52C37.7091 9.6 37.6651 9.668 37.6091 9.724C37.5611 9.772 37.4851 9.796 37.3811 9.796H36.9971ZM39.4789 16C39.3989 16 39.3309 15.976 39.2749 15.928C39.2269 15.872 39.2029 15.804 39.2029 15.724V15.304C39.2029 15.232 39.2189 15.164 39.2509 15.1C39.2909 15.036 39.3309 14.976 39.3709 14.92L42.6829 10.708H39.5869C39.5069 10.708 39.4389 10.684 39.3829 10.636C39.3349 10.588 39.3109 10.52 39.3109 10.432V10.036C39.3109 9.956 39.3349 9.892 39.3829 9.844C39.4389 9.788 39.5069 9.76 39.5869 9.76H43.8589C43.9389 9.76 44.0029 9.788 44.0509 9.844C44.1069 9.892 44.1349 9.956 44.1349 10.036V10.48C44.1349 10.552 44.1149 10.616 44.0749 10.672C44.0429 10.728 44.0069 10.788 43.9669 10.852L40.6909 15.052H44.0989C44.1789 15.052 44.2429 15.076 44.2909 15.124C44.3469 15.172 44.3749 15.24 44.3749 15.328V15.724C44.3749 15.804 44.3469 15.872 44.2909 15.928C44.2429 15.976 44.1789 16 44.0989 16H39.4789ZM48.7884 16.12C48.3084 16.12 47.9084 16.036 47.5884 15.868C47.2684 15.692 47.0124 15.476 46.8204 15.22V15.724C46.8204 15.804 46.7924 15.872 46.7364 15.928C46.6884 15.976 46.6244 16 46.5444 16H45.9924C45.9124 16 45.8444 15.976 45.7884 15.928C45.7404 15.872 45.7164 15.804 45.7164 15.724V7.756C45.7164 7.676 45.7404 7.612 45.7884 7.564C45.8444 7.508 45.9124 7.48 45.9924 7.48H46.5684C46.6564 7.48 46.7244 7.508 46.7724 7.564C46.8204 7.612 46.8444 7.676 46.8444 7.756V10.516C47.0444 10.268 47.3004 10.06 47.6124 9.892C47.9324 9.724 48.3244 9.64 48.7884 9.64C49.2364 9.64 49.6164 9.72 49.9284 9.88C50.2484 10.032 50.5084 10.244 50.7084 10.516C50.9164 10.788 51.0724 11.096 51.1764 11.44C51.2804 11.784 51.3364 12.144 51.3444 12.52C51.3524 12.648 51.3564 12.768 51.3564 12.88C51.3564 12.992 51.3524 13.112 51.3444 13.24C51.3364 13.624 51.2804 13.988 51.1764 14.332C51.0724 14.676 50.9164 14.984 50.7084 15.256C50.5084 15.52 50.2484 15.732 49.9284 15.892C49.6164 16.044 49.2364 16.12 48.7884 16.12ZM48.5364 15.148C48.9524 15.148 49.2764 15.06 49.5084 14.884C49.7484 14.7 49.9204 14.464 50.0244 14.176C50.1284 13.88 50.1884 13.564 50.2044 13.228C50.2124 12.996 50.2124 12.764 50.2044 12.532C50.1884 12.196 50.1284 11.884 50.0244 11.596C49.9204 11.3 49.7484 11.064 49.5084 10.888C49.2764 10.704 48.9524 10.612 48.5364 10.612C48.1604 10.612 47.8484 10.7 47.6004 10.876C47.3524 11.052 47.1644 11.276 47.0364 11.548C46.9164 11.82 46.8524 12.096 46.8444 12.376C46.8364 12.504 46.8324 12.66 46.8324 12.844C46.8324 13.02 46.8364 13.172 46.8444 13.3C46.8604 13.596 46.9244 13.888 47.0364 14.176C47.1564 14.456 47.3364 14.688 47.5764 14.872C47.8244 15.056 48.1444 15.148 48.5364 15.148Z" fill="#F35459"/>
<path fill-rule="evenodd" clip-rule="evenodd" d="M4 11.856C4 13.4354 4.1603 14.067 4.70979 15.4214C4.97068 16.0646 5.38946 16.6304 5.8049 17.1753C5.89223 17.2897 5.95609 17.3344 6.03483 17.4349C6.34456 17.83 6.88616 18.2656 7.29021 18.5631C7.66575 18.8398 8.03795 19.0569 8.47439 19.2703C9.19062 19.6205 10.3013 19.9303 11.3276 20H12.1293C12.2014 19.9943 12.2726 19.987 12.342 19.9779C12.453 19.9633 12.6427 19.9402 12.7272 19.9384C12.7272 19.721 12.7164 19.4793 12.6885 19.2682C12.649 18.9655 12.6709 18.9331 12.7394 18.655C12.8019 18.401 13 17.6799 13 17.4704L12.7445 16.5275C12.6448 16.1685 12.3606 15.6198 12.1627 15.2979C12.0208 15.0672 12.2327 14.9449 12.4199 14.4738C12.4768 14.3311 12.5757 14.1792 12.6061 14.0463C12.5284 14.0397 12.2334 13.9499 12.1541 13.9202C11.9889 13.8578 11.7347 13.5235 11.5541 13.3587C11.4265 13.2424 10.6242 13.0999 10.375 13.0477C10.0539 12.9803 10.1051 12.6288 9.82655 12.1869C9.79033 12.1293 9.81465 12.165 9.78788 12.1336V12.6272C9.54447 12.6272 9.60538 12.665 9.45469 12.442L8.65778 11.3405C8.47702 11.0964 8.48367 11.1479 8.48489 10.7455C8.4882 9.5541 8.58395 10.034 7.97145 8.98528C7.90005 8.86309 7.72665 8.62311 7.69688 8.49342L6.61002 8.68261C6.10797 8.76884 6.14334 8.74034 5.6061 8.74034C5.46383 8.74034 5.21797 8.53102 5.09092 8.46263C5.20362 8.29142 5.50987 8.14625 5.6061 8C5.52647 8.00177 5.13081 8.07998 5.0694 8.13219C5.00256 8.18902 4.87865 8.46319 4.82825 8.56542C4.36453 9.50974 4 10.6983 4 11.8561L4 11.856Z" fill="#F35459"/>
<path fill-rule="evenodd" clip-rule="evenodd" d="M14.702 7.51097C14.5857 7.53717 14.5126 7.58881 14.4147 7.63704C14.2499 7.71789 14.0479 7.62351 13.7995 7.51951C13.6924 7.47481 13.5815 7.43474 13.4893 7.38754V6.98668C13.2639 6.93595 13.0656 6.79544 12.819 6.74006C12.7444 7.04938 12.6692 7.36048 12.5956 7.66515C12.4895 7.67368 11.9998 7.78483 11.9255 7.81918C11.9589 7.95826 11.9893 8.17372 11.9893 8.34344C12.1964 8.34788 12.6749 8.48093 12.883 8.49765C12.9241 8.32651 12.9864 7.80905 13.0424 7.69596C13.0743 7.66532 13.371 7.7232 13.4208 7.73122C13.5616 7.75419 13.6934 7.75134 13.8146 7.81311C14.2327 8.02645 13.9485 7.97339 14.6383 7.97339L14.8619 8.46666C14.9544 8.66966 15.0342 8.74198 15.1888 8.89085C15.3735 9.06876 15.7659 9.49079 15.9469 9.6078C15.9354 9.73938 15.8862 9.83696 15.8829 9.97785C15.2028 9.96324 15.2998 9.74903 14.7238 10.0605C14.5589 10.1497 14.4411 10.2118 14.2658 10.2966C13.6171 10.61 13.8511 10.43 13.4475 10.8935L12.7805 11.6676C12.7376 11.7451 12.7168 11.8473 12.698 11.9271C12.6353 12.1944 12.6974 12.1673 12.3404 12.1673C12.1856 12.1673 11.7519 11.9052 11.6661 11.8998C11.5321 11.8917 11.1686 12.1294 11 12.1673C11.0072 12.2515 11.1311 12.7576 11.1594 12.815C11.2733 12.7412 11.3489 12.6577 11.4149 12.5373C11.6336 12.5373 11.7557 12.5202 11.9256 12.5065L11.8935 13.0308C11.8935 13.174 12.2029 13.1365 12.35 13.2682L12.6915 13.6475C13.4116 13.4854 13.144 13.3914 14.12 13.5932C14.5679 13.6858 14.7671 13.7983 15.2113 13.8339C15.388 13.848 15.4085 13.8781 15.5091 13.9778L16.0791 14.599C16.2174 14.7489 16.7791 15.0265 16.982 15.1451C17.088 15.2071 17.1595 15.2477 17.2611 15.3072C17.3637 15.3672 17.448 15.4057 17.5425 15.4669L16.8191 16.8032C16.556 17.3136 16.5359 17.169 15.9148 17.4713C15.4665 17.6895 15.7323 17.5124 15.3331 18.4511C15.2538 18.6375 14.918 18.7919 14.7468 18.9022C14.5223 19.0468 14.3421 19.1739 14.1213 19.3155C13.9943 19.3967 13.9016 19.415 13.8521 19.5796C13.8128 19.7099 13.7553 19.8752 13.7446 20L14.4114 19.8116C14.6119 19.75 14.8259 19.6618 15.0351 19.5817C15.2564 19.4969 15.4105 19.4102 15.6171 19.3114L16.189 19.0005C16.9192 18.5788 17.9559 17.6432 18.4425 16.9531L19.3937 15.3127C19.8739 14.1534 19.9962 13.3341 20 12.0735V12.0131C20 11.3224 19.7764 10.3408 19.5492 9.73515L19.3572 9.24223C19.0743 8.58031 18.9289 8.4617 18.6277 7.9118C18.3944 8.01989 17.3376 8.09682 17.0639 8.09682C17.0108 8.1935 16.9524 8.28844 16.8853 8.38692C16.8264 8.47329 16.739 8.5878 16.7128 8.68271C16.5363 8.60078 16.488 8.65082 16.2416 8.42877L15.8589 8.08919C15.325 7.56136 15.5171 7.97506 15.2653 7.24423C15.0394 6.588 15.0196 6.70449 14.4877 6.23791C14.3803 6.14352 14.3984 6.15102 14.2275 6.1193C14.0825 6.09223 13.7264 6.05056 13.6169 6C13.6169 6.60636 13.6206 6.35225 14.088 6.80919C14.2207 6.93883 14.6608 7.36124 14.7021 7.51097H14.702Z" fill="#F35459"/>
<path fill-rule="evenodd" clip-rule="evenodd" d="M9.82394 4.90329C9.94046 4.93291 10.1125 5.04972 10.2011 5.04485C10.2767 5.04075 10.5163 4.92917 10.6181 4.90329C10.6913 5.05491 10.7803 5.20319 10.8535 5.35481L10.0529 5.57423C9.75006 5.66813 9.88597 5.64686 9.38265 5.35481C9.44074 5.17876 9.6451 5.19611 9.82394 4.90329V4.90329ZM11.5424 4.00004H12.173C13.034 4.04065 13.8904 4.24908 14.7077 4.64419C14.8181 4.69766 14.8901 4.71312 15 4.80104C14.3724 4.90202 14.4396 4.74198 13.9713 4.74198C13.9706 4.74198 13.5555 5.04206 13.5125 5.07745C13.3201 5.2356 13.2659 5.40381 13.1405 5.50813C13.0353 5.59532 11.9832 5.67746 11.7653 5.67746C11.5232 5.67746 11.4191 5.61282 11.1769 5.61282C11.1477 5.73333 10.8975 6.1055 10.8239 6.25806C10.5358 6.25806 10.3632 6.28993 10.0877 6.28935C9.70673 6.2884 9.97289 6.3998 9.4606 6.23701C8.89935 6.05856 9.09981 6.05856 8.66699 6.31189L8.44108 6.45124L7.1593 6.65836C6.81973 6.71945 6.19923 6.98174 6 7C6.07322 6.84802 6.3693 6.51512 6.4926 6.37897C6.74112 6.10477 7.04991 5.83039 7.33629 5.59438L7.97668 5.13538C8.09015 5.06068 8.17714 4.99883 8.29415 4.9353C9.32029 4.37721 10.428 4.05198 11.5424 4V4.00004ZM11.7064 5.16126C11.7385 5.02957 11.7188 5.09531 11.821 5.02881C12.0114 4.90532 12.7819 4.38709 12.883 4.38709C12.9683 4.38709 13.219 4.6108 13.3537 4.6451C13.2997 4.73359 12.7344 5.20653 12.6825 5.23186C12.5543 5.29426 12.3054 5.29295 12.1682 5.31477C11.8825 5.36003 11.8932 5.21604 11.7064 5.16126V5.16126Z" fill="#F35459"/>
</svg>
