<svg width="29" height="29" viewBox="0 0 29 29" fill="none" xmlns="http://www.w3.org/2000/svg">
<path fill-rule="evenodd" clip-rule="evenodd" d="M23.2009 22.6763L22.1326 22.2806L22.1237 22.2771L22.113 22.2735C21.6586 22.1164 21.2108 22.018 20.7771 21.9852C20.3509 21.9529 19.9362 21.9831 19.5397 22.082C19.1571 22.1774 18.7909 22.3376 18.4472 22.5682C18.1179 22.7891 17.8104 23.0734 17.5302 23.4261C17.2019 23.8394 17.0146 24.1807 16.8871 24.5493C16.7613 24.913 16.6991 25.2855 16.6173 25.7768L16.6107 25.8161C16.6045 25.8536 16.598 25.8897 16.5912 25.9258L16.5665 26.0549C16.5198 26.2975 16.4614 26.6013 16.4573 26.7884C16.457 26.8034 16.4505 26.8171 16.4402 26.8272C16.4302 26.837 16.4164 26.8431 16.4015 26.8431L16.1739 26.8433H11.6371C11.6213 26.8433 11.6072 26.8372 11.5971 26.8273C11.5873 26.8173 11.5805 26.8031 11.5805 26.7873L11.5807 26.7773V26.7622C11.5732 26.5866 11.5281 26.3526 11.486 26.1342L11.4859 26.1338L11.4855 26.1316L11.4814 26.1101C11.4648 26.0243 11.4488 25.9412 11.436 25.8647L11.4108 25.7116C11.3331 25.2439 11.2733 24.8861 11.1497 24.5346C11.0237 24.1769 10.8368 23.8394 10.5085 23.4261C10.2298 23.0754 9.92526 22.7926 9.59983 22.5732C9.25945 22.3436 8.89699 22.1833 8.51802 22.0868C8.12465 21.9866 7.71193 21.9545 7.28626 21.9846C6.85293 22.0153 6.40646 22.1107 5.95373 22.2644L5.9484 22.2661L4.62318 22.7559C4.60967 22.7609 4.59526 22.7602 4.58263 22.7551C4.57042 22.7501 4.55997 22.7406 4.55389 22.7278L4.54946 22.7198C4.22196 22.1018 3.79614 21.3864 3.36961 20.6698L3.36992 20.6689L3.36883 20.6685C2.93631 19.9419 2.503 19.2139 2.17234 18.589C2.16511 18.5753 2.16417 18.5598 2.16846 18.5459C2.17257 18.5327 2.18199 18.5208 2.19572 18.5136L2.20141 18.5111L2.20736 18.5093L2.41521 18.4536L2.40519 18.406C2.4313 18.3884 2.45865 18.3691 2.48707 18.348C2.59727 18.2664 2.7325 18.1558 2.87576 18.0329C3.07201 17.8647 3.27803 17.6758 3.45878 17.5034C3.68073 17.2917 3.86566 17.1043 3.95086 17.0074C4.23693 16.6824 4.45309 16.3021 4.59996 15.8932C4.75186 15.4702 4.82862 15.017 4.83105 14.5635C4.83347 14.1057 4.76108 13.6491 4.61468 13.2242C4.47232 12.811 4.25957 12.4252 3.97708 12.0939C3.7712 11.8524 3.61367 11.6908 3.47261 11.5619C3.32578 11.4278 3.20509 11.3357 3.06827 11.2313C2.98406 11.1671 2.89409 11.0984 2.79596 11.0196C2.69929 10.9419 2.58898 10.8495 2.45685 10.7321C2.42907 10.7074 2.41014 10.6888 2.39636 10.6742C2.3837 10.6607 2.37119 10.6458 2.36068 10.6333C2.28458 10.5426 2.24058 10.4958 2.16671 10.5195C2.16524 10.5115 2.16548 10.503 2.16776 10.4945L2.16979 10.4867C2.17135 10.483 2.17318 10.4794 2.17318 10.4794L2.1794 10.4705C2.23175 10.3718 2.27491 10.2923 2.31071 10.228C2.36212 10.1356 2.40948 10.0521 2.45383 9.97512C2.48649 9.91838 2.53899 9.82899 2.60456 9.71796C2.6689 9.60903 2.71436 9.53278 2.74993 9.47359L2.7517 9.47095L3.95737 7.3847C3.95737 7.3847 3.95597 7.38751 3.95821 7.38378L3.96768 7.36934C4.01292 7.29451 4.06283 7.21116 4.11851 7.11705C4.1529 7.05893 4.20155 6.97537 4.26733 6.86108C4.31129 6.78469 4.35894 6.70025 4.4108 6.60657C4.46962 6.50033 4.51823 6.4111 4.55461 6.34237C4.56073 6.33073 4.56995 6.32223 4.58042 6.31744C4.59122 6.31252 4.60396 6.31124 4.61661 6.31418L4.63696 6.31892C4.78036 6.35565 4.99709 6.44264 5.1577 6.5071L5.16329 6.50897L5.24842 6.54321L5.35873 6.58682L5.35905 6.58694C5.72689 6.73251 6.04973 6.86027 6.39677 6.95429C6.74753 7.0493 7.11263 7.10648 7.55338 7.10648C7.97607 7.10648 8.38248 7.03335 8.76278 6.90009C9.1595 6.76108 9.52621 6.55644 9.85184 6.30108C10.1859 6.03906 10.477 5.72398 10.7133 5.37183C10.9488 5.02074 11.1303 4.63277 11.2459 4.22368L11.2493 4.21143L11.5821 2.27515C11.5844 2.26146 11.5914 2.24982 11.6011 2.24165C11.6112 2.23311 11.624 2.22859 11.6372 2.22861H16.4016C16.4174 2.22861 16.4315 2.23469 16.4416 2.24454C16.4515 2.25462 16.4583 2.26873 16.4583 2.28456L16.458 2.29363V2.30962C16.4619 2.39887 16.4755 2.50355 16.4936 2.61388C16.512 2.72578 16.5323 2.83154 16.552 2.93369L16.5529 2.93854L16.5537 2.94234L16.5542 2.94521C16.5719 3.03683 16.589 3.12578 16.6026 3.20716L16.6224 3.32594C16.7017 3.80261 16.7615 4.16232 16.8857 4.52127C17.0105 4.88227 17.1957 5.2252 17.5225 5.6552C17.6869 5.87155 17.8886 6.07554 18.1219 6.25809C18.3474 6.43448 18.602 6.59138 18.8807 6.72059C19.1471 6.84418 19.4356 6.94265 19.7414 7.00902C20.0317 7.07201 20.3377 7.10646 20.6555 7.10646C21.0245 7.10646 21.3848 7.03433 21.7255 6.93244C22.05 6.83544 22.3638 6.70782 22.6471 6.59207L22.648 6.59119C22.9395 6.47212 23.2004 6.36557 23.4222 6.31391C23.4353 6.31083 23.4484 6.31256 23.4595 6.3179C23.471 6.3235 23.4805 6.33258 23.4858 6.34385L23.4902 6.35362C23.829 6.99278 24.2525 7.70337 24.6755 8.41308L24.676 8.41391L24.6774 8.41621C24.8869 8.76764 25.0963 9.11896 25.3058 9.47979C25.5075 9.82702 25.698 10.1646 25.8664 10.4828C25.8736 10.4965 25.8746 10.512 25.8703 10.5259C25.8662 10.5391 25.8567 10.551 25.843 10.5582L25.8373 10.5607L25.8314 10.5626L25.6128 10.6211L25.6297 10.685C25.6081 10.7008 25.5854 10.718 25.5617 10.7362C25.4472 10.8246 25.2897 10.9513 25.1224 11.0884C24.9299 11.2464 24.7335 11.4132 24.5793 11.5498C24.428 11.6837 24.313 11.7932 24.2723 11.8463L24.1996 11.9418L24.1954 11.9471L24.1927 11.9497C23.9374 12.2815 23.6953 12.5976 23.5119 13C23.3263 13.4071 23.2072 13.8886 23.2072 14.5358C23.2072 15.48 23.4579 16.1558 23.8579 16.7167C24.25 17.2666 24.775 17.6899 25.3456 18.1501L25.3456 18.1501L25.3594 18.1612C25.3733 18.1725 25.3899 18.1855 25.4077 18.1993L25.4596 18.2392C25.4965 18.2673 25.5297 18.2933 25.5819 18.3397C25.6069 18.3619 25.625 18.3798 25.6388 18.3946C25.6525 18.4093 25.6667 18.4252 25.6779 18.4385C25.7542 18.5291 25.7946 18.5771 25.8718 18.551C25.8736 18.5594 25.8734 18.5683 25.871 18.5773L25.869 18.5851L25.8593 18.6014C25.807 18.7001 25.7638 18.7797 25.7281 18.8438C25.6767 18.9362 25.6293 19.0197 25.585 19.0967C25.552 19.1539 25.4995 19.2432 25.4331 19.3557C25.3682 19.4656 25.3228 19.5417 25.2868 19.6016C25.1783 19.7821 25.0817 19.9514 24.9862 20.1205L24.9861 20.1222C24.9691 20.1524 24.9497 20.1865 24.8333 20.3895C24.7769 20.4878 24.7259 20.5751 24.6865 20.6408L24.6818 20.6483L24.6783 20.6554L23.4831 22.7312C23.4765 22.7427 23.4659 22.751 23.4537 22.7554C23.4414 22.7599 23.4279 22.7601 23.4158 22.7556L23.2009 22.6763ZM20.4854 24.1789C21.0536 24.1789 21.559 24.382 22.0455 24.5839L22.088 24.6016L22.0884 24.6017C22.5433 24.7906 22.9826 24.973 23.4348 24.973C24.1117 24.973 24.5966 24.7057 24.9834 24.3086C25.3519 23.9303 25.618 23.4451 25.8803 22.9668L25.8819 22.964C25.9319 22.8729 25.9818 22.7818 26.0393 22.6798C26.0925 22.5854 26.1486 22.4883 26.2107 22.3856L26.2125 22.3812L27.2056 20.6544C27.2372 20.5965 27.2713 20.5358 27.3068 20.4736C27.3318 20.4298 27.3671 20.369 27.4031 20.307L27.4052 20.3035C27.898 19.4547 28.4498 18.5045 27.6326 17.2996C27.4315 17.0031 27.0798 16.7292 26.7179 16.4477L26.7151 16.4455C26.386 16.1895 26.0492 15.9275 25.8044 15.6383C25.5756 15.3679 25.4207 15.0658 25.4207 14.706C25.4207 14.4613 25.4345 14.2636 25.4673 14.0959C25.4986 13.9361 25.5472 13.8018 25.6184 13.6766C25.6891 13.5521 25.78 13.4402 25.8964 13.324C26.021 13.1997 26.1746 13.0702 26.3621 12.9175C26.4218 12.8689 26.4838 12.8189 26.5463 12.7688L26.6953 12.65L26.6957 12.6497C27.1246 12.3081 27.4488 12.0501 27.6773 11.7044C27.9115 11.3502 28.0298 10.9293 28.0298 10.2819C28.0298 9.72338 27.3337 8.58191 26.9019 7.87407C26.8565 7.79961 26.8449 7.781 26.8364 7.76727C26.8283 7.75409 26.8229 7.7454 26.793 7.69614C26.7779 7.6713 26.7525 7.6289 26.7088 7.555L26.6773 7.50113L26.5995 7.36573L26.5985 7.36629L25.2028 4.978L25.192 4.96342C25.107 4.84858 24.992 4.73252 24.8548 4.62427C24.7243 4.52125 24.5754 4.42578 24.4153 4.34588C24.2622 4.26945 24.0969 4.20609 23.9253 4.16255C23.7648 4.12179 23.5997 4.0987 23.4348 4.0987C22.9843 4.0987 22.5838 4.26661 22.1549 4.44693L22.1516 4.44826L22.1505 4.44876C21.6421 4.66253 21.0943 4.89276 20.372 4.89276C20.2491 4.89276 20.1277 4.87007 20.011 4.83066C19.879 4.78602 19.7505 4.71911 19.6308 4.63845C19.501 4.55103 19.3823 4.44676 19.2816 4.3373C19.1754 4.22184 19.0904 4.10313 19.0346 3.99457C18.9483 3.82649 18.8917 3.63921 18.8497 3.43917C18.8047 3.22526 18.7767 3.00327 18.748 2.77461C18.7029 2.41661 18.6556 2.04101 18.539 1.67615C18.4172 1.29496 18.2234 0.933924 17.888 0.63209C17.794 0.547525 17.6898 0.466805 17.577 0.393799C17.4709 0.325064 17.3589 0.264355 17.2427 0.215C17.1351 0.169321 17.0233 0.13286 16.9085 0.108265C16.7979 0.0845737 16.6852 0.0715981 16.5717 0.0715981H11.467C11.357 0.0715981 11.2468 0.0840206 11.1378 0.106829C11.0248 0.13048 10.9155 0.165112 10.8111 0.208389C10.6975 0.255507 10.5878 0.313339 10.4839 0.378891C10.3754 0.447359 10.2736 0.524286 10.1804 0.606098C9.83535 0.909143 9.6382 1.26347 9.51583 1.6371C9.3977 1.99779 9.35214 2.36536 9.30808 2.72109C9.27893 2.95655 9.25031 3.1873 9.20492 3.40061C9.16039 3.60987 9.09917 3.80957 9.00415 3.99457C8.90462 4.18829 8.79011 4.34165 8.66286 4.46257C8.53794 4.58128 8.40061 4.66874 8.25308 4.73269C8.10884 4.7952 7.95423 4.83492 7.79144 4.85942C7.62554 4.88438 7.45083 4.89276 7.26979 4.89276C7.03115 4.89276 6.70159 4.75894 6.31524 4.60207L6.31455 4.60179C5.29768 4.18883 3.87299 3.61028 2.84123 4.99114C2.74238 5.12341 2.58366 5.38209 2.40226 5.69126C2.21859 6.00426 2.02397 6.34719 1.84312 6.66586C1.72714 6.87017 1.61559 7.06673 1.56091 7.16191C1.47376 7.31363 1.39524 7.44834 1.32993 7.55621L1.19679 7.77422L1.1967 7.77438C0.773098 8.46377 0.00894165 9.70741 0.00894165 10.2818C0.00894165 10.5789 0.0284443 10.8236 0.0704288 11.034C0.11426 11.2537 0.183222 11.4366 0.280432 11.602C0.377518 11.7671 0.504559 11.9167 0.664303 12.0694C0.8176 12.2159 0.998264 12.3635 1.21122 12.5309C1.27008 12.5771 1.30926 12.6088 1.33886 12.6334L1.46413 12.7393C1.52283 12.789 1.58282 12.8398 1.64611 12.8914L1.72417 12.9549C1.7512 12.9768 1.74949 12.9751 1.7482 12.9739C1.74759 12.9733 1.74707 12.9728 1.74977 12.975C1.8028 13.0174 1.85035 13.0555 1.91506 13.1109C1.96679 13.1553 2.01894 13.2028 2.07782 13.2616C2.25697 13.4405 2.39236 13.6407 2.48388 13.8514C2.57826 14.0687 2.62687 14.2977 2.62952 14.5261C2.63217 14.7546 2.58867 14.9829 2.49893 15.1989C2.41182 15.4086 2.28105 15.6065 2.10648 15.7816L2.10297 15.7849L2.08784 15.7966L1.21395 16.5399L1.14853 16.5935L1.08135 16.6484L1.07963 16.6507C0.993832 16.7219 0.912758 16.7892 0.805058 16.8726C0.594687 17.0355 0.425087 17.2356 0.296568 17.4587C0.162712 17.6911 0.0740833 17.9474 0.0309086 18.2115C-0.0135193 18.4834 -0.010397 18.7637 0.0405579 19.035C0.0905685 19.3013 0.186712 19.5596 0.329149 19.7934C0.438555 19.9731 0.585859 20.2256 0.755068 20.5199C0.891039 20.7564 1.11096 21.1425 1.338 21.5412C1.94983 22.6156 2.61721 23.7874 2.83343 24.0901C2.91865 24.2093 3.03512 24.3294 3.17431 24.4405C3.30544 24.5451 3.45763 24.643 3.62343 24.7258C3.77656 24.8022 3.94183 24.8656 4.11344 24.9091C4.27398 24.9498 4.43911 24.9729 4.60396 24.9729C4.98088 24.9729 5.43847 24.7949 5.91992 24.6077L5.92015 24.6076L5.9204 24.6075C6.48044 24.3896 7.07042 24.1602 7.60187 24.1588C8.10126 24.1575 8.57265 24.365 8.96131 25.0008C9.06566 25.1715 9.13304 25.3686 9.18244 25.5827C9.23518 25.8113 9.2677 26.0574 9.30131 26.3119C9.35846 26.7445 9.41915 27.2036 9.59269 27.6305C9.77426 28.0772 10.0733 28.4789 10.6034 28.7623C10.6739 28.8 10.7479 28.8358 10.8224 28.866C10.8889 28.893 10.9624 28.9184 11.0433 28.9406C11.1125 28.9596 11.1833 28.9748 11.2548 28.9847C11.3257 28.9945 11.3968 29 11.467 29H16.5717C16.6377 29 16.7056 28.9948 16.7742 28.9856C16.8454 28.976 16.9134 28.9621 16.9775 28.9451C17.0498 28.9261 17.1167 28.9041 17.178 28.8806C17.2451 28.8549 17.3125 28.8243 17.3768 28.7921L17.3965 28.7823L17.9729 28.3593L17.9862 28.3458C18.2713 28.0553 18.4394 27.7097 18.5478 27.3459C18.6512 26.9991 18.6989 26.6376 18.7443 26.2936C18.7765 26.0491 18.8077 25.8127 18.8552 25.5983C18.9004 25.3942 18.9615 25.205 19.0553 25.0382C19.1234 24.9171 19.2128 24.7973 19.3201 24.6877C19.4223 24.5833 19.5404 24.488 19.6715 24.4092C19.7928 24.3363 19.9257 24.2768 20.0683 24.2365C20.1988 24.1996 20.3383 24.1789 20.4854 24.1789ZM9.70726 13.8924C9.31673 13.5019 8.68357 13.5019 8.29305 13.8924C7.90252 14.2829 7.90252 14.9161 8.29305 15.3066L11.579 18.5926C12.3642 19.3777 13.6385 19.373 14.4178 18.5822L20.2124 12.7019C20.6001 12.3085 20.5954 11.6754 20.2021 11.2877C19.8087 10.9001 19.1755 10.9047 18.7879 11.2981L12.9933 17.1784L9.70726 13.8924Z" fill="#000"/>
</svg>
