<svg width="24" height="24" viewBox="0 0 24 24" fill="none" xmlns="http://www.w3.org/2000/svg">
<path d="M18.3418 5.65819C17.5105 4.81863 16.5215 4.15161 15.4316 3.69544C14.3417 3.23926 13.1724 3.00294 11.9909 3.00003C10.8093 2.99712 9.63891 3.22769 8.54678 3.67849C7.45465 4.12929 6.46235 4.79144 5.6269 5.6269C4.79144 6.46235 4.12929 7.45465 3.67849 8.54678C3.22769 9.63891 2.99712 10.8093 3.00003 11.9909C3.00294 13.1724 3.23926 14.3417 3.69544 15.4316C4.15161 16.5215 4.81863 17.5105 5.65819 18.3418C6.48952 19.1814 7.47855 19.8484 8.56845 20.3046C9.65834 20.7607 10.8276 20.9971 12.0091 21C13.1907 21.0029 14.3611 20.7723 15.4532 20.3215C16.5454 19.8707 17.5377 19.2086 18.3731 18.3731C19.2086 17.5377 19.8707 16.5454 20.3215 15.4532C20.7723 14.3611 21.0029 13.1907 21 12.0091C20.9971 10.8276 20.7607 9.65834 20.3046 8.56845C19.8484 7.47855 19.1814 6.48952 18.3418 5.65819ZM9.4427 12.1674C9.40871 11.6474 9.53405 11.1294 9.802 10.6825C10.0699 10.2356 10.4678 9.88106 10.9424 9.66605C11.417 9.45105 11.946 9.38585 12.4586 9.47916C12.9712 9.57246 13.4433 9.81983 13.8117 10.1883C14.1802 10.5567 14.4275 11.0288 14.5208 11.5414C14.6141 12.054 14.549 12.583 14.3339 13.0576C14.1189 13.5322 13.7644 13.9301 13.3175 14.198C12.8706 14.4659 12.3526 14.5913 11.8326 14.5573C11.2123 14.5162 10.628 14.2512 10.1884 13.8116C9.74884 13.372 9.48383 12.7877 9.4427 12.1674ZM19.0521 9.49915L15.1935 9.73298C15.1671 9.73437 15.1408 9.7293 15.1168 9.71821C15.0928 9.70711 15.0718 9.69033 15.0558 9.66932C14.8479 9.39698 14.6046 9.15366 14.3323 8.94581C14.3113 8.92976 14.2945 8.90883 14.2834 8.88483C14.2723 8.86082 14.2672 8.83448 14.2686 8.80807L14.5025 4.9495C14.5039 4.92435 14.5112 4.89989 14.5239 4.87811C14.5365 4.85633 14.5542 4.83785 14.5753 4.82416C14.5964 4.81046 14.6205 4.80195 14.6456 4.79931C14.6706 4.79667 14.6959 4.79998 14.7195 4.80896C15.7381 5.197 16.6632 5.79617 17.4339 6.56711C18.2045 7.33805 18.8034 8.26332 19.191 9.28214C19.2 9.30567 19.2033 9.33099 19.2007 9.35604C19.198 9.38109 19.1895 9.40517 19.1758 9.42631C19.1622 9.44745 19.1437 9.46507 19.1219 9.47772C19.1001 9.49038 19.0757 9.49772 19.0505 9.49915H19.0521ZM9.49915 4.9495L9.73298 8.80807C9.73437 8.83448 9.7293 8.86082 9.71821 8.88483C9.70711 8.90883 9.69033 8.92976 9.66932 8.94581C9.39698 9.15366 9.15366 9.39698 8.94581 9.66932C8.92976 9.69033 8.90883 9.70711 8.88483 9.71821C8.86082 9.7293 8.83448 9.73437 8.80807 9.73298L4.9495 9.49915C4.92435 9.49772 4.89989 9.49038 4.87811 9.47772C4.85633 9.46507 4.83785 9.44745 4.82416 9.42631C4.81046 9.40517 4.80195 9.38109 4.79931 9.35604C4.79667 9.33099 4.79998 9.30567 4.80896 9.28214C5.19681 8.26316 5.79589 7.3378 6.56684 6.56684C7.3378 5.79589 8.26316 5.19681 9.28214 4.80896C9.30567 4.79998 9.33099 4.79667 9.35604 4.79931C9.38109 4.80195 9.40517 4.81046 9.42631 4.82416C9.44745 4.83785 9.46507 4.85633 9.47772 4.87811C9.49038 4.89989 9.49772 4.92435 9.49915 4.9495ZM4.9495 14.5008L8.80807 14.267C8.83448 14.2656 8.86082 14.2707 8.88483 14.2818C8.90883 14.2929 8.92976 14.3097 8.94581 14.3307C9.15366 14.603 9.39698 14.8463 9.66932 15.0542C9.69033 15.0702 9.70711 15.0912 9.71821 15.1152C9.7293 15.1392 9.73437 15.1655 9.73298 15.1919L9.49915 19.0505C9.49772 19.0757 9.49038 19.1001 9.47772 19.1219C9.46507 19.1437 9.44745 19.1622 9.42631 19.1758C9.40517 19.1895 9.38109 19.198 9.35604 19.2007C9.33099 19.2033 9.30567 19.2 9.28214 19.191C8.26316 18.8032 7.3378 18.2041 6.56684 17.4332C5.79589 16.6622 5.19681 15.7368 4.80896 14.7179C4.79998 14.6943 4.79667 14.669 4.79931 14.644C4.80195 14.6189 4.81046 14.5948 4.82416 14.5737C4.83785 14.5525 4.85633 14.5349 4.87811 14.5223C4.89989 14.5096 4.92435 14.5023 4.9495 14.5008ZM14.5008 19.0505L14.267 15.1919C14.2656 15.1655 14.2707 15.1392 14.2818 15.1152C14.2929 15.0912 14.3097 15.0702 14.3307 15.0542C14.603 14.8463 14.8463 14.603 15.0542 14.3307C15.0702 14.3097 15.0912 14.2929 15.1152 14.2818C15.1392 14.2707 15.1655 14.2656 15.1919 14.267L19.0505 14.5008C19.0757 14.5023 19.1001 14.5096 19.1219 14.5223C19.1437 14.5349 19.1622 14.5525 19.1758 14.5737C19.1895 14.5948 19.198 14.6189 19.2007 14.644C19.2033 14.669 19.2 14.6943 19.191 14.7179C18.8032 15.7368 18.2041 16.6622 17.4332 17.4332C16.6622 18.2041 15.7368 18.8032 14.7179 19.191C14.6943 19.2 14.669 19.2033 14.644 19.2007C14.6189 19.198 14.5948 19.1895 14.5737 19.1758C14.5525 19.1622 14.5349 19.1437 14.5223 19.1219C14.5096 19.1001 14.5023 19.0757 14.5008 19.0505Z" fill="#000"/>
</svg>
