<svg width="28" height="21" viewBox="0 0 28 21" fill="none" xmlns="http://www.w3.org/2000/svg">
<path fill-rule="evenodd" clip-rule="evenodd" d="M0 2.43812V18.2829C0 19.5472 1.13991 20.6871 2.40418 20.6871H25.5755C26.705 20.6871 27.6688 19.8373 27.9278 18.7181L23.6272 14.3346C23.4614 14.1688 23.3993 14.0549 23.2438 13.8994L21.6479 12.3243C21.4511 12.6248 21.2542 12.8113 20.9018 12.9978C20.2179 13.3605 19.3889 13.402 18.6738 13.0497C18.1039 12.7699 17.6272 12.2724 17.4303 11.6714C17.3266 11.3605 17.2852 11.0704 17.2852 10.718C17.2852 10.604 17.3059 10.6248 17.1919 10.6248C16.8396 10.6248 16.5287 10.5729 16.2386 10.4797C15.9277 10.376 15.6479 10.1792 15.4199 9.99262C14.5287 9.27759 14.2903 7.73353 15.2541 6.53144C15.4095 6.33454 15.5235 6.34491 15.6479 6.15838C15.5442 6.00293 15.4303 5.93039 15.3163 5.78531C15.1712 5.60915 15.1194 5.54697 14.9536 5.38116L12.6841 3.05989C12.2281 2.60393 11.5856 2.03397 11.2022 1.53655C11.0986 1.40184 9.80324 0.033944 9.63743 0.033944H2.4249C1.16064 0.033944 0.0207257 1.17386 0.0207257 2.43812H0ZM18.9122 5.39153C18.9122 5.88894 19.4821 6.5418 19.7308 6.70761C19.9277 6.57289 20.0728 6.36563 20.2282 6.16874C20.7982 5.44334 20.5909 4.68685 19.6168 4.68685C19.2852 4.68685 18.9018 5.05992 18.9018 5.40189L18.9122 5.39153ZM16.2386 8.06514C16.2386 9.03924 16.995 9.2465 17.7204 8.67654C17.9173 8.5211 18.1246 8.37602 18.2593 8.17913C18.0831 7.90969 17.451 7.36046 16.9432 7.36046C16.6116 7.36046 16.2282 7.73353 16.2282 8.0755L16.2386 8.06514ZM18.9122 10.9046C18.9122 12.2517 21.4303 11.7025 20.2282 10.1895C20.0728 9.99262 19.9277 9.78537 19.7308 9.65065C19.4925 9.81645 18.9122 10.4693 18.9122 10.9046ZM21.2127 8.16877C21.3889 8.4382 22.021 8.98743 22.5288 8.98743C23.4407 8.98743 23.5236 7.3501 22.477 7.3501C22.0417 7.3501 21.3785 7.93042 21.2231 8.16877H21.2127ZM17.2748 5.43298C17.3577 4.43815 17.6686 4.29307 17.9277 3.79565C17.6375 3.36041 17.1505 2.93554 16.7671 2.55211C16.3422 2.12724 15.9588 1.74381 15.5339 1.31893C15.3059 1.09095 15.1815 0.914785 14.9639 0.686802C14.8396 0.562448 14.4665 0.158298 14.3629 0.0857582C14.1556 -0.0593214 12.3525 0.0235812 11.9691 0.0235812C12.2489 0.438094 13.2541 1.28785 13.6168 1.70236C13.7411 1.84744 13.7722 1.90962 13.9173 2.0547L15.2541 3.3915C15.3784 3.51585 15.4613 3.59876 15.5857 3.72311C15.7308 3.86819 15.7619 3.96146 15.9069 4.10654C16.2178 4.42778 16.9536 5.22572 17.2645 5.43298H17.2748ZM22.3008 10.6248C22.5288 10.9667 23.3578 11.7025 23.7102 12.0548L26.5496 15.0082C27.0366 15.4953 27.5444 15.972 27.9796 16.4694V14.3036C27.9693 14.1378 27.9485 14.0134 27.9175 13.9719C27.7413 13.7232 25.5133 11.5263 25.047 10.9978L24.0521 10.0237C23.8034 10.0859 23.4407 10.6248 22.3008 10.6248ZM24.8708 8.27239C24.8708 8.39675 24.8501 8.33457 24.819 8.49001C25.1091 8.68691 25.3682 9.04961 25.5962 9.29831C26.3112 10.0755 27.2646 10.8838 27.99 11.7129V3.08062V2.51066C27.9796 2.24123 27.9589 1.99252 27.8864 1.76454C27.648 1.02878 27.1817 0.572811 26.5081 0.241201C26.0936 0.033944 25.8553 0.0235812 25.2542 0.0235812H16.5598L19.1194 2.65574C19.2023 2.73864 19.2749 2.83191 19.3578 2.90445C19.7308 3.24642 20.1039 2.70755 21.3163 3.61948C22.3112 4.36561 22.135 5.68169 22.2075 5.71277C22.2283 5.72314 22.5392 5.70241 22.6531 5.72314C24.0003 5.93039 24.8708 6.9045 24.8708 8.26203V8.27239ZM5.76173 8.10659C6.42495 8.10659 6.92237 8.29312 7.25398 8.65582C7.58559 9.01852 7.77212 9.48484 7.79285 10.0444C7.80321 10.1792 7.80321 10.2828 7.80321 10.376C7.80321 10.4693 7.80321 10.5522 7.80321 10.6455C7.80321 10.7284 7.80321 10.8113 7.80321 10.8942C7.80321 10.9771 7.80321 11.0807 7.79285 11.2051C7.76176 11.7647 7.58559 12.2206 7.25398 12.5833C6.92237 12.946 6.42495 13.1222 5.76173 13.1222C5.09851 13.1222 4.6011 12.946 4.26948 12.5833C3.93787 12.2206 3.75134 11.7647 3.73062 11.2051C3.72026 11.0807 3.70989 10.9771 3.70989 10.8942C3.70989 10.8113 3.69953 10.7284 3.69953 10.6455C3.69953 10.5626 3.69953 10.4693 3.70989 10.376C3.70989 10.2828 3.72026 10.1688 3.73062 10.0444C3.76171 9.48484 3.93787 9.02888 4.26948 8.65582C4.6011 8.29312 5.09851 8.10659 5.76173 8.10659ZM6.72548 10.0859C6.70475 9.82682 6.62185 9.59883 6.47677 9.40194C6.33169 9.20505 6.09334 9.11178 5.76173 9.11178C5.44049 9.11178 5.20214 9.20505 5.0467 9.40194C4.90162 9.59883 4.81872 9.82682 4.79799 10.0859C4.78763 10.2102 4.77726 10.3035 4.77726 10.3864C4.77726 10.4693 4.7669 10.5419 4.7669 10.6144C4.7669 10.6869 4.7669 10.7595 4.77726 10.8424C4.77726 10.9253 4.78763 11.0289 4.79799 11.1636C4.81872 11.4227 4.90162 11.6507 5.0467 11.8372C5.19178 12.0237 5.43012 12.1274 5.76173 12.1274C6.08298 12.1274 6.32133 12.0341 6.47677 11.8372C6.62185 11.6507 6.70475 11.4227 6.72548 11.1636C6.73584 11.0289 6.73584 10.9253 6.73584 10.8424C6.73584 10.7595 6.73584 10.6869 6.73584 10.6144C6.73584 10.5419 6.73584 10.4693 6.73584 10.3864C6.73584 10.3035 6.73584 10.2102 6.72548 10.0859ZM11.5442 12.9875C12.2074 12.9875 12.7048 13.174 13.0364 13.5367C13.368 13.8994 13.5546 14.3657 13.5753 14.9253C13.5857 15.06 13.5857 15.1637 13.5857 15.2569C13.5857 15.3502 13.5857 15.4331 13.5857 15.5264C13.5857 15.6093 13.5857 15.6922 13.5857 15.7751C13.5857 15.858 13.5857 15.9616 13.5753 16.086C13.5442 16.6456 13.368 17.1015 13.0364 17.4642C12.7048 17.8269 12.2074 18.0031 11.5442 18.0031C10.881 18.0031 10.3836 17.8269 10.0519 17.4642C9.72033 17.1015 9.5338 16.6456 9.51308 16.086C9.50271 15.9616 9.49235 15.858 9.49235 15.7751C9.49235 15.6922 9.48199 15.6093 9.48199 15.5264C9.48199 15.4435 9.48199 15.3502 9.49235 15.2569C9.49235 15.1637 9.50271 15.0497 9.51308 14.9253C9.54416 14.3657 9.72033 13.9098 10.0519 13.5367C10.3836 13.174 10.881 12.9875 11.5442 12.9875ZM12.5079 14.9668C12.4872 14.7077 12.4043 14.4797 12.2592 14.2828C12.1141 14.0859 11.8758 13.9927 11.5442 13.9927C11.2229 13.9927 10.9846 14.0859 10.8292 14.2828C10.6841 14.4797 10.6012 14.7077 10.5804 14.9668C10.5701 15.0911 10.5597 15.1844 10.5597 15.2673C10.5597 15.3502 10.5494 15.4227 10.5494 15.4953C10.5494 15.5678 10.5494 15.6404 10.5597 15.7233C10.5597 15.8062 10.5701 15.9098 10.5804 16.0445C10.6012 16.3036 10.6841 16.5316 10.8292 16.7181C10.9742 16.9046 11.2126 17.0083 11.5442 17.0083C11.8654 17.0083 12.1038 16.915 12.2592 16.7181C12.4043 16.5316 12.4872 16.3036 12.5079 16.0445C12.5183 15.9098 12.5183 15.8062 12.5183 15.7233C12.5183 15.6404 12.5183 15.5678 12.5183 15.4953C12.5183 15.4227 12.5183 15.3502 12.5183 15.2673C12.5183 15.1844 12.5183 15.0911 12.5079 14.9668ZM11.3887 8.44856C11.4509 8.36566 11.5235 8.30348 11.5856 8.25167C11.6582 8.21022 11.7514 8.17913 11.8862 8.17913H12.4147C12.5183 8.17913 12.6012 8.19985 12.6634 8.25167C12.7256 8.30348 12.7566 8.36566 12.7566 8.44856C12.7566 8.46929 12.7566 8.49001 12.7463 8.5211C12.7359 8.55219 12.7256 8.57292 12.7048 8.604L5.82391 17.6611C5.76173 17.744 5.68919 17.8062 5.62702 17.858C5.55448 17.8995 5.46121 17.9305 5.32649 17.9305H4.79799C4.69436 17.9305 4.61146 17.9098 4.54928 17.858C4.4871 17.8062 4.45602 17.744 4.45602 17.6611C4.45602 17.6404 4.45602 17.6197 4.46638 17.5886C4.47674 17.5575 4.4871 17.5368 4.50783 17.5057L11.3887 8.44856Z" fill="#F35459"/>
</svg>
