<svg width="33" height="31" viewBox="0 0 33 31" fill="none" xmlns="http://www.w3.org/2000/svg">
<path d="M19.3082 12.1878L27.6874 7.33172C27.8801 7.20477 28.0085 7.14129 28.0727 7.14129C28.2011 7.07781 28.2974 7.01434 28.3616 6.95086C28.8753 6.8239 29.389 6.88737 29.9026 7.14129C30.4805 7.3952 30.8658 7.80781 31.0584 8.37911L32.792 13.8065C32.9847 14.3143 32.9205 14.8539 32.5994 15.4252C32.3426 15.933 31.9573 16.2504 31.4437 16.3774C31.3794 16.4408 31.1226 16.5043 30.6732 16.5678L21.0418 17.52L28.2653 23.8043C28.4579 23.9313 28.5864 24.0582 28.6506 24.1852C28.7148 24.2486 28.779 24.3121 28.8432 24.3756C29.1642 24.7565 29.2927 25.2643 29.2284 25.8991C29.1642 26.5339 28.8753 27.0099 28.3616 27.3273L23.6423 30.6599C23.1928 30.9773 22.6791 31.0725 22.1012 30.9456C21.5234 30.8186 21.0739 30.5647 20.7529 30.1839L20.3676 29.5173L16.5151 20.9478L12.6625 29.5173L12.2773 30.1839C11.9562 30.5647 11.5068 30.8186 10.9289 30.9456C10.351 31.0725 9.83733 30.9773 9.38787 30.6599L4.66851 27.3273C4.15484 27.0099 3.8659 26.5339 3.80169 25.8991C3.73748 25.2643 3.8659 24.7565 4.18694 24.3756C4.25115 24.3121 4.31536 24.2486 4.37957 24.1852C4.44378 24.0582 4.5722 23.9313 4.76482 23.8043L11.892 17.52L2.35699 16.5678C1.84331 16.5043 1.58648 16.4408 1.58648 16.3774C1.07281 16.2504 0.655448 15.933 0.334403 15.4252C0.0775668 14.8539 0.0454625 14.3143 0.23809 13.8065L1.97173 8.37911C2.16436 7.80781 2.51751 7.3952 3.03118 7.14129C3.60906 6.88737 4.15484 6.8239 4.66851 6.95086C4.73272 7.01434 4.79693 7.07781 4.86114 7.14129C4.98955 7.14129 5.15008 7.20477 5.3427 7.33172L13.6257 12.1878L11.6031 2.85651C11.5389 2.53912 11.5068 2.28521 11.5068 2.09478C11.5068 1.58695 11.6994 1.11087 12.0846 0.666517C12.5341 0.222172 13.0478 0 13.6257 0H19.4045C19.9824 0 20.4639 0.222172 20.8492 0.666517C21.2986 1.11087 21.5234 1.58695 21.5234 2.09478C21.5234 2.28521 21.4913 2.53912 21.4271 2.85651L19.3082 12.1878Z" fill="#E5474C"/>
</svg>
