<svg width="24" height="24" viewBox="0 0 24 24" fill="none" xmlns="http://www.w3.org/2000/svg">
<path d="M13.485 20.375C14.3064 19.547 14.3064 18.1992 13.485 17.3712C12.6656 16.5367 11.3354 16.5367 10.5182 17.369C9.69672 18.2013 9.69672 19.5491 10.5182 20.3782C11.3375 21.2073 12.6677 21.2083 13.485 20.375ZM20.9031 11.981C20.366 11.981 19.8289 11.7738 19.4197 11.3581C15.3293 7.21377 8.67385 7.21484 4.58239 11.3581C3.762 12.1883 2.43385 12.1872 1.61451 11.3581C0.795165 10.528 0.795165 9.18232 1.61451 8.35111C7.3415 2.54963 16.6595 2.54963 22.3855 8.35111C23.2048 9.18126 23.2048 10.5269 22.3855 11.3571C21.9774 11.7727 21.4403 11.981 20.9031 11.981ZM7.55027 16.49C7.01314 16.49 6.476 16.2827 6.06686 15.8671C5.24751 15.037 5.24751 13.6913 6.06686 12.8611C9.33793 9.54585 14.6631 9.54585 17.9352 12.8611C18.7546 13.6913 18.7546 15.037 17.9352 15.8682C17.1159 16.6983 15.7877 16.6983 14.9674 15.8682C13.3318 14.21 10.6692 14.2111 9.03264 15.8682C8.62454 16.2827 8.08741 16.49 7.55027 16.49Z" fill="#000"/>
</svg>
