<svg width="29" height="28" viewBox="0 0 29 28" fill="none" xmlns="http://www.w3.org/2000/svg">
<path fill-rule="evenodd" clip-rule="evenodd" d="M22.5588 20.5333V2.48889H25.6073V20.5333H22.5588ZM20.12 1.24444C20.12 0.557157 20.6659 0 21.3394 0H26.8267C27.5001 0 28.0461 0.557157 28.0461 1.24444V21.7778C28.0461 22.4651 27.5001 23.0222 26.8267 23.0222H21.3394C20.6659 23.0222 20.12 22.4651 20.12 21.7778V1.24444ZM12.8036 20.5333V13.1145H15.2424V20.5333H12.8036ZM10.3648 11.8701C10.3648 11.1828 10.9108 10.6256 11.5842 10.6256H16.4618C17.1353 10.6256 17.6812 11.1828 17.6812 11.8701V21.7778C17.6812 22.4651 17.1353 23.0222 16.4618 23.0222H11.5842C10.9108 23.0222 10.3648 22.4651 10.3648 21.7778V11.8701ZM2.43879 9.57265V20.5333H5.48727V9.57265H2.43879ZM1.21939 7.08376C0.545941 7.08376 0 7.64092 0 8.32821V21.7778C0 22.4651 0.545941 23.0222 1.21939 23.0222H6.70667C7.38012 23.0222 7.92606 22.4651 7.92606 21.7778V8.3282C7.92606 7.64092 7.38012 7.08376 6.70667 7.08376H1.21939ZM1.21939 25.5111C0.545941 25.5111 0 26.0683 0 26.7556C0 27.4428 0.545941 28 1.21939 28L26.8267 28C27.5001 28 28.0461 27.4428 28.0461 26.7556C28.0461 26.0683 27.5001 25.5111 26.8267 25.5111L1.21939 25.5111Z" fill="#000"/>
</svg>
