<svg width="20" height="18" viewBox="0 0 20 18" fill="none" xmlns="http://www.w3.org/2000/svg">
<path fill-rule="evenodd" clip-rule="evenodd" d="M17.9516 0.83394L1.11321 7.49408C0.19274 7.77066 0.221502 8.72217 0.903002 8.94343L5.12255 10.3263L6.7367 15.4928C6.93252 16.0571 7.09294 16.2672 7.42816 16.2783C7.59579 16.2685 7.75918 16.2219 7.90664 16.1416C8.0541 16.0613 8.18197 15.9492 8.28113 15.8137C8.70928 15.3933 9.36202 14.7299 10.3931 13.6788L14.7808 17.0637C15.5885 17.5284 16.1715 17.2961 16.3728 16.2783L19.1243 2.07316C19.4197 0.834069 18.7249 0.46885 17.9516 0.83394ZM5.78193 10.0055L15.3738 3.72185C15.8473 3.38995 15.9945 3.75478 15.7821 4.00924L7.81649 11.4878L7.40824 15.2276L5.78193 10.0055Z" fill="white"/>
</svg>
