<svg width="62" height="61" viewBox="0 0 62 61" fill="none" xmlns="http://www.w3.org/2000/svg">
<path fill-rule="evenodd" clip-rule="evenodd" d="M31 61C48.1208 61 62 47.3447 62 30.5C62 13.6553 48.1208 0 31 0C13.8792 0 0 13.6553 0 30.5C0 47.3447 13.8792 61 31 61ZM30.9998 30.5C32.7664 30.5 34.4934 29.9757 35.9622 28.9934C37.4311 28.0111 38.576 26.6149 39.2521 24.9814C39.9281 23.3479 40.105 21.5505 39.7604 19.8163C39.4157 18.0822 38.565 16.4893 37.3158 15.2391C36.0666 13.9888 34.475 13.1374 32.7424 12.7925C31.0097 12.4476 29.2137 12.6246 27.5816 13.3012C25.9494 13.9778 24.5544 15.1236 23.5729 16.5938C22.5914 18.0639 22.0676 19.7923 22.0676 21.5604C22.0699 23.9306 23.0118 26.2031 24.6864 27.879C26.361 29.555 28.6315 30.4977 30.9998 30.5ZM30.9998 15.6006C32.1775 15.6006 33.3288 15.9501 34.3081 16.605C35.2874 17.2599 36.0506 18.1907 36.5013 19.2797C36.952 20.3687 37.0699 21.567 36.8402 22.7231C36.6104 23.8791 36.0433 24.9411 35.2105 25.7746C34.3777 26.6081 33.3166 27.1757 32.1615 27.4056C31.0064 27.6356 29.8091 27.5176 28.721 27.0665C27.6329 26.6154 26.7029 25.8515 26.0485 24.8714C25.3942 23.8914 25.045 22.7391 25.045 21.5604C25.045 19.9797 25.6724 18.4639 26.7891 17.3462C27.9058 16.2285 29.4205 15.6006 30.9998 15.6006ZM30.9998 33.6552C27.2386 33.6594 23.6326 35.1566 20.9731 37.8184C18.3135 40.4802 16.8175 44.0891 16.8133 47.8535C16.8133 48.2719 16.9794 48.6731 17.275 48.969C17.5706 49.2649 17.9716 49.4311 18.3896 49.4311C18.8077 49.4311 19.2086 49.2649 19.5042 48.969C19.7998 48.6731 19.9659 48.2719 19.9659 47.8535C19.9659 44.9247 21.1284 42.1158 23.1976 40.0448C25.2669 37.9738 28.0734 36.8104 30.9998 36.8104C33.9262 36.8104 36.7327 37.9738 38.8019 40.0448C40.8712 42.1158 42.0337 44.9247 42.0337 47.8535C42.0337 48.2719 42.1998 48.6731 42.4954 48.969C42.791 49.2649 43.1919 49.4311 43.61 49.4311C44.028 49.4311 44.4289 49.2649 44.7245 48.969C45.0202 48.6731 45.1862 48.2719 45.1862 47.8535C45.1821 44.0891 43.6861 40.4802 41.0265 37.8184C38.3669 35.1566 34.761 33.6594 30.9998 33.6552Z" fill="#D6D6D6"/>
</svg>
