<svg width="24" height="24" viewBox="0 0 24 24" fill="none" xmlns="http://www.w3.org/2000/svg">
<path d="M16.5756 16.8856C15.6397 16.8855 14.8783 16.1241 14.8783 15.1882V12.3695C14.8783 11.4336 15.6397 10.6722 16.5756 10.6722H20.9981C21.0249 10.6722 21.0516 10.6731 21.0781 10.6742V7.86633C21.0781 7.14355 20.4921 6.55762 19.7693 6.55762H3.54326C2.82043 6.55757 2.2345 7.1435 2.2345 7.86629V19.6914C2.2345 20.4142 2.82043 21.0002 3.54326 21.0002H19.7693C20.4921 21.0002 21.0781 20.4143 21.0781 19.6914V16.8835C21.0516 16.8847 21.0249 16.8856 20.9981 16.8856H16.5756Z" fill="#000"/>
<path d="M20.9981 11.6025H16.5755C16.1518 11.6025 15.8082 11.9461 15.8082 12.3698V15.1885C15.8082 15.6123 16.1518 15.9558 16.5755 15.9558H20.9981C21.4218 15.9558 21.7653 15.6123 21.7653 15.1885V12.3698C21.7653 11.946 21.4218 11.6025 20.9981 11.6025ZM18.0994 14.8865C17.4878 14.8865 16.992 14.3907 16.992 13.7791C16.992 13.1675 17.4878 12.6717 18.0994 12.6717C18.711 12.6717 19.2068 13.1675 19.2068 13.7791C19.2068 14.3907 18.711 14.8865 18.0994 14.8865Z" fill="#000"/>
<path d="M17.4905 4.16026C17.1978 3.27404 16.242 2.79297 15.3558 3.08577L8.70709 5.28232H17.8612L17.4905 4.16026Z" fill="#000"/>
</svg>
