<svg width="29" height="28" viewBox="0 0 29 28" fill="none" xmlns="http://www.w3.org/2000/svg">
<path fill-rule="evenodd" clip-rule="evenodd" d="M1.38997e-06 5.60205C1.38997e-06 2.50812 2.51225 0 5.61126 0H20.8535H21.8216C22.482 0 23.0824 0.25628 23.5286 0.674659C23.5622 0.706194 23.595 0.73865 23.6268 0.771986C24.0535 1.21878 24.3155 1.82375 24.3155 2.4898V3.39188L24.3155 3.51449L24.3155 8.71431L25.1596 8.7143H25.1596C25.6182 8.71422 26.0642 8.71415 26.4358 8.75776C26.8504 8.80641 27.3301 8.92355 27.7604 9.27328C27.8922 9.38037 28.0126 9.50062 28.1199 9.63216C28.4702 10.0617 28.5875 10.5407 28.6363 10.9546C28.6799 11.3256 28.6799 11.7709 28.6798 12.2288V23.8733C28.6799 24.3312 28.6799 24.7765 28.6363 25.1475C28.5875 25.5614 28.4702 26.0404 28.1199 26.4699C28.0126 26.6015 27.8922 26.7217 27.7604 26.8288C27.3301 27.1786 26.8504 27.2957 26.4358 27.3444C26.0642 27.388 25.6181 27.3879 25.1595 27.3878L7.00273 27.3878H7.0027H7.00267C5.79201 27.3878 4.77532 27.3879 3.95793 27.2919C3.09677 27.1909 2.29707 26.9689 1.6089 26.4096C1.37832 26.2222 1.16753 26.0117 0.979813 25.7815C0.419554 25.0945 0.197243 24.2961 0.0960154 23.4364C-6.4934e-05 22.6203 -3.46606e-05 21.6054 1.38997e-06 20.3967V20.3967V20.3966L5.03009e-06 9.31549L5.02995e-06 9.31549C-1.45912e-05 8.16096 -3.17577e-05 7.15086 0.0399894 6.2743C0.0135869 6.05389 1.38997e-06 5.82955 1.38997e-06 5.60205ZM2.60785 5.38286C2.57991 5.62018 2.55881 5.87608 2.54289 6.15467C2.8041 7.6099 4.0785 8.7143 5.61126 8.7143H21.8216V3.53426C21.8215 3.01977 21.819 2.73362 21.7951 2.53099L21.7935 2.51783L21.7803 2.51623C21.5723 2.49183 21.2765 2.48981 20.7367 2.48981H9.40822C7.5949 2.48981 6.34392 2.49183 5.3917 2.60357C4.46672 2.71213 3.98651 2.90941 3.64311 3.18852C3.47841 3.32239 3.32785 3.47271 3.19376 3.63713C2.91419 3.97997 2.71658 4.45939 2.60785 5.38286ZM5.61126 11.2041C4.45775 11.2041 3.38553 10.8566 2.4939 10.2607V20.323C2.4939 21.6248 2.49592 22.4923 2.57286 23.1457C2.64659 23.772 2.77421 24.0384 2.91382 24.2096C2.99427 24.3083 3.08461 24.3985 3.18342 24.4788C3.3549 24.6181 3.62179 24.7456 4.24908 24.8192C4.9036 24.896 5.77253 24.898 7.07643 24.898H25.101C25.6408 24.898 25.9367 24.896 26.1446 24.8716L26.1578 24.87L26.1594 24.8568C26.1839 24.6492 26.1859 24.3538 26.1859 23.8149V12.2872C26.1859 11.7483 26.1839 11.4529 26.1594 11.2453L26.1578 11.2321L26.1446 11.2305C25.9367 11.2061 25.6408 11.2041 25.101 11.2041H21.8216L5.61126 11.2041ZM21.198 16.8062C20.165 16.8062 19.3276 17.6422 19.3276 18.6735C19.3276 19.7048 20.165 20.5408 21.198 20.5408C22.231 20.5408 23.0684 19.7048 23.0684 18.6735C23.0684 17.6422 22.231 16.8062 21.198 16.8062Z" fill="#000"/>
</svg>
