<svg width="23" height="27" viewBox="0 0 23 27" fill="none" xmlns="http://www.w3.org/2000/svg">
<path d="M18.8691 19.7168H17.4496L17.4566 18.8741C17.4566 18.4993 17.7571 18.1934 18.1249 18.1934H18.2159C18.5838 18.1934 18.8857 18.4994 18.8857 18.8741L18.8691 19.7168ZM13.5474 17.9109C13.1886 17.9109 12.894 18.1585 12.894 18.4612V22.5594C12.894 22.8621 13.1886 23.1083 13.5474 23.1083C13.909 23.1083 14.2036 22.8621 14.2036 22.5594V18.4608C14.2036 18.1585 13.909 17.9109 13.5474 17.9109ZM22.188 15.6189V23.4146C22.188 25.2848 20.6026 26.8147 18.6638 26.8147H4.17425C2.23509 26.8147 0.650024 25.2844 0.650024 23.4146V15.6189C0.650024 13.7487 2.23518 12.2182 4.17425 12.2182H18.6642C20.6025 12.2182 22.188 13.7491 22.188 15.6189ZM5.14035 24.2612L5.1397 16.0493L6.9357 16.0499V14.8328L2.14764 14.8253V16.0212L3.64246 16.0258V24.2609H5.14035V24.2612ZM10.5248 17.2728H9.02721V21.6577C9.02721 22.2923 9.06435 22.6095 9.02517 22.7211C8.9029 23.0611 8.35542 23.4221 8.14244 22.758C8.10633 22.6415 8.13827 22.2905 8.13762 21.6875L8.13065 17.2724H6.6414L6.64697 21.6178C6.64762 22.284 6.63202 22.7807 6.65179 23.0067C6.68828 23.4053 6.67473 23.8703 7.03708 24.1351C7.71036 24.6321 9.00187 24.0612 9.32495 23.3516L9.32217 24.2569L10.5245 24.2587V17.2728H10.5248ZM15.3157 22.294L15.3129 18.6442C15.3115 17.2529 14.2943 16.4198 12.9124 17.5453L12.9186 14.8316L11.4224 14.8341L11.4151 24.1997L12.6452 24.1812L12.7571 23.5974C14.3297 25.0741 15.3184 24.063 15.3157 22.294ZM20.0033 21.8105L18.8798 21.8166C18.8798 21.8624 18.8778 21.9146 18.877 21.9722V22.6131C18.877 22.956 18.6002 23.2352 18.2635 23.2352H18.0436C17.7063 23.2352 17.4295 22.956 17.4295 22.6131V22.5421V21.8365V20.927H20.0009V19.9371C20.0009 19.2142 19.9825 18.4911 19.9241 18.0776C19.7404 16.7691 17.945 16.5616 17.0377 17.2313C16.7528 17.4406 16.5357 17.7205 16.4086 18.0972C16.2811 18.4734 16.2179 18.9867 16.2179 19.6398V21.8159C16.2188 25.4333 20.5149 24.922 20.0033 21.8105ZM14.2429 9.99521C14.3197 10.1878 14.4395 10.343 14.6031 10.4609C14.7633 10.576 14.9697 10.6347 15.2159 10.6347C15.4316 10.6347 15.623 10.575 15.7891 10.4517C15.9554 10.3292 16.0958 10.1466 16.2097 9.90216L16.1812 10.5033H17.8504V3.24271H16.5362V8.8935C16.5362 9.19905 16.2893 9.44953 15.988 9.44953C15.6889 9.44953 15.4412 9.19905 15.4412 8.8935V3.24271H14.07V8.13959C14.07 8.76351 14.0808 9.17949 14.0992 9.39057C14.1189 9.60012 14.1658 9.80085 14.2429 9.99521ZM9.1843 5.89458C9.1843 5.19755 9.2413 4.65358 9.35383 4.26134C9.46709 3.87014 9.67199 3.55576 9.96732 3.31914C10.2625 3.08072 10.6406 2.96175 11.0991 2.96175C11.4851 2.96175 11.8161 3.03952 12.093 3.19125C12.3698 3.34402 12.5849 3.5419 12.7329 3.78668C12.885 4.03222 12.9871 4.28479 13.0424 4.54306C13.0986 4.80455 13.1258 5.20002 13.1258 5.73184V7.56828C13.1258 8.24186 13.0994 8.73712 13.0483 9.05197C12.9979 9.36749 12.8889 9.65985 12.72 9.93378C12.5533 10.2052 12.3379 10.4081 12.0767 10.5374C11.8134 10.6685 11.5122 10.7324 11.171 10.7324C10.791 10.7324 10.47 10.6788 10.2063 10.5661C9.9416 10.4546 9.73661 10.2861 9.59103 10.0627C9.44305 9.83892 9.3399 9.56641 9.2777 9.24881C9.21447 8.93082 9.18458 8.45369 9.18458 7.81705V5.89458H9.1843ZM10.4911 8.77909C10.4911 9.18975 10.7909 9.52549 11.1553 9.52549C11.5197 9.52549 11.8174 9.19013 11.8174 8.77909V4.91365C11.8174 4.50299 11.5197 4.16724 11.1553 4.16724C10.7909 4.16724 10.4911 4.50261 10.4911 4.91365V8.77909ZM5.87119 10.7306H7.4466L7.44799 5.16194L9.30898 0.391534H7.58633L6.59693 3.93547L5.59332 0.382324H3.88905L5.86878 5.16517L5.87119 10.7306Z" fill="white"/>
</svg>
